<svg version="1.1" xmlns="http://www.w3.org/2000/svg" xmlns:xlink="http://www.w3.org/1999/xlink" width="567" height="428"><defs/><g><text fill="#eeeeee" stroke="none" font-family="Arial" font-size="24px" font-style="normal" font-weight="normal" text-decoration="none" x="0" y="0">UNREGISTERED</text><text fill="#eeeeee" stroke="none" font-family="Arial" font-size="24px" font-style="normal" font-weight="normal" text-decoration="none" x="0" y="30">UNREGISTERED</text><text fill="#eeeeee" stroke="none" font-family="Arial" font-size="24px" font-style="normal" font-weight="normal" text-decoration="none" x="0" y="60">UNREGISTERED</text><text fill="#eeeeee" stroke="none" font-family="Arial" font-size="24px" font-style="normal" font-weight="normal" text-decoration="none" x="0" y="90">UNREGISTERED</text><text fill="#eeeeee" stroke="none" font-family="Arial" font-size="24px" font-style="normal" font-weight="normal" text-decoration="none" x="0" y="120">UNREGISTERED</text><text fill="#eeeeee" stroke="none" font-family="Arial" font-size="24px" font-style="normal" font-weight="normal" text-decoration="none" x="0" y="150">UNREGISTERED</text><text fill="#eeeeee" stroke="none" font-family="Arial" font-size="24px" font-style="normal" font-weight="normal" text-decoration="none" x="0" y="180">UNREGISTERED</text><text fill="#eeeeee" stroke="none" font-family="Arial" font-size="24px" font-style="normal" font-weight="normal" text-decoration="none" x="0" y="210">UNREGISTERED</text><text fill="#eeeeee" stroke="none" font-family="Arial" font-size="24px" font-style="normal" font-weight="normal" text-decoration="none" x="0" y="240">UNREGISTERED</text><text fill="#eeeeee" stroke="none" font-family="Arial" font-size="24px" font-style="normal" font-weight="normal" text-decoration="none" x="0" y="270">UNREGISTERED</text><text fill="#eeeeee" stroke="none" font-family="Arial" font-size="24px" font-style="normal" font-weight="normal" text-decoration="none" x="0" y="300">UNREGISTERED</text><text fill="#eeeeee" stroke="none" font-family="Arial" font-size="24px" font-style="normal" font-weight="normal" text-decoration="none" x="0" y="330">UNREGISTERED</text><text fill="#eeeeee" stroke="none" font-family="Arial" font-size="24px" font-style="normal" font-weight="normal" text-decoration="none" x="0" y="360">UNREGISTERED</text><text fill="#eeeeee" stroke="none" font-family="Arial" font-size="24px" font-style="normal" font-weight="normal" text-decoration="none" x="0" y="390">UNREGISTERED</text><text fill="#eeeeee" stroke="none" font-family="Arial" font-size="24px" font-style="normal" font-weight="normal" text-decoration="none" x="0" y="420">UNREGISTERED</text><text fill="#eeeeee" stroke="none" font-family="Arial" font-size="24px" font-style="normal" font-weight="normal" text-decoration="none" x="200" y="0">UNREGISTERED</text><text fill="#eeeeee" stroke="none" font-family="Arial" font-size="24px" font-style="normal" font-weight="normal" text-decoration="none" x="200" y="30">UNREGISTERED</text><text fill="#eeeeee" stroke="none" font-family="Arial" font-size="24px" font-style="normal" font-weight="normal" text-decoration="none" x="200" y="60">UNREGISTERED</text><text fill="#eeeeee" stroke="none" font-family="Arial" font-size="24px" font-style="normal" font-weight="normal" text-decoration="none" x="200" y="90">UNREGISTERED</text><text fill="#eeeeee" stroke="none" font-family="Arial" font-size="24px" font-style="normal" font-weight="normal" text-decoration="none" x="200" y="120">UNREGISTERED</text><text fill="#eeeeee" stroke="none" font-family="Arial" font-size="24px" font-style="normal" font-weight="normal" text-decoration="none" x="200" y="150">UNREGISTERED</text><text fill="#eeeeee" stroke="none" font-family="Arial" font-size="24px" font-style="normal" font-weight="normal" text-decoration="none" x="200" y="180">UNREGISTERED</text><text fill="#eeeeee" stroke="none" font-family="Arial" font-size="24px" font-style="normal" font-weight="normal" text-decoration="none" x="200" y="210">UNREGISTERED</text><text fill="#eeeeee" stroke="none" font-family="Arial" font-size="24px" font-style="normal" font-weight="normal" text-decoration="none" x="200" y="240">UNREGISTERED</text><text fill="#eeeeee" stroke="none" font-family="Arial" font-size="24px" font-style="normal" font-weight="normal" text-decoration="none" x="200" y="270">UNREGISTERED</text><text fill="#eeeeee" stroke="none" font-family="Arial" font-size="24px" font-style="normal" font-weight="normal" text-decoration="none" x="200" y="300">UNREGISTERED</text><text fill="#eeeeee" stroke="none" font-family="Arial" font-size="24px" font-style="normal" font-weight="normal" text-decoration="none" x="200" y="330">UNREGISTERED</text><text fill="#eeeeee" stroke="none" font-family="Arial" font-size="24px" font-style="normal" font-weight="normal" text-decoration="none" x="200" y="360">UNREGISTERED</text><text fill="#eeeeee" stroke="none" font-family="Arial" font-size="24px" font-style="normal" font-weight="normal" text-decoration="none" x="200" y="390">UNREGISTERED</text><text fill="#eeeeee" stroke="none" font-family="Arial" font-size="24px" font-style="normal" font-weight="normal" text-decoration="none" x="200" y="420">UNREGISTERED</text><text fill="#eeeeee" stroke="none" font-family="Arial" font-size="24px" font-style="normal" font-weight="normal" text-decoration="none" x="400" y="0">UNREGISTERED</text><text fill="#eeeeee" stroke="none" font-family="Arial" font-size="24px" font-style="normal" font-weight="normal" text-decoration="none" x="400" y="30">UNREGISTERED</text><text fill="#eeeeee" stroke="none" font-family="Arial" font-size="24px" font-style="normal" font-weight="normal" text-decoration="none" x="400" y="60">UNREGISTERED</text><text fill="#eeeeee" stroke="none" font-family="Arial" font-size="24px" font-style="normal" font-weight="normal" text-decoration="none" x="400" y="90">UNREGISTERED</text><text fill="#eeeeee" stroke="none" font-family="Arial" font-size="24px" font-style="normal" font-weight="normal" text-decoration="none" x="400" y="120">UNREGISTERED</text><text fill="#eeeeee" stroke="none" font-family="Arial" font-size="24px" font-style="normal" font-weight="normal" text-decoration="none" x="400" y="150">UNREGISTERED</text><text fill="#eeeeee" stroke="none" font-family="Arial" font-size="24px" font-style="normal" font-weight="normal" text-decoration="none" x="400" y="180">UNREGISTERED</text><text fill="#eeeeee" stroke="none" font-family="Arial" font-size="24px" font-style="normal" font-weight="normal" text-decoration="none" x="400" y="210">UNREGISTERED</text><text fill="#eeeeee" stroke="none" font-family="Arial" font-size="24px" font-style="normal" font-weight="normal" text-decoration="none" x="400" y="240">UNREGISTERED</text><text fill="#eeeeee" stroke="none" font-family="Arial" font-size="24px" font-style="normal" font-weight="normal" text-decoration="none" x="400" y="270">UNREGISTERED</text><text fill="#eeeeee" stroke="none" font-family="Arial" font-size="24px" font-style="normal" font-weight="normal" text-decoration="none" x="400" y="300">UNREGISTERED</text><text fill="#eeeeee" stroke="none" font-family="Arial" font-size="24px" font-style="normal" font-weight="normal" text-decoration="none" x="400" y="330">UNREGISTERED</text><text fill="#eeeeee" stroke="none" font-family="Arial" font-size="24px" font-style="normal" font-weight="normal" text-decoration="none" x="400" y="360">UNREGISTERED</text><text fill="#eeeeee" stroke="none" font-family="Arial" font-size="24px" font-style="normal" font-weight="normal" text-decoration="none" x="400" y="390">UNREGISTERED</text><text fill="#eeeeee" stroke="none" font-family="Arial" font-size="24px" font-style="normal" font-weight="normal" text-decoration="none" x="400" y="420">UNREGISTERED</text><g transform="translate(-139,-62) scale(1,1)"><rect fill="#C0C0C0" stroke="none" x="295" y="79" width="408" height="408" opacity="0.2"/></g><g transform="translate(-139,-62) scale(1,1)"><rect fill="#ffffff" stroke="none" x="288" y="72" width="408" height="408"/></g><g transform="translate(-139,-62) scale(1,1)"><path fill="none" stroke="#000000" d="M 288 72 L 696 72 L 696 480 L 288 480 L 288 72 Z Z" stroke-miterlimit="10"/></g><g transform="translate(-139,-62) scale(1,1)"><g><path fill="none" stroke="none"/><text fill="#000000" stroke="none" font-family="Arial" font-size="13px" font-style="normal" font-weight="bold" text-decoration="none" x="392.268798828125" y="91.5">Módulo de Atendimento ao Cliente</text></g></g><g transform="translate(-139,-62) scale(1,1)"><path fill="#ffffff" stroke="none" d="M 190.32390110085228 177.68 C 190.32390110085228 172.886167936 194.20974342579774 169 199.003173828125 169 C 203.79660423045226 169 207.68244655539772 172.886167936 207.68244655539772 177.68 C 207.68244655539772 182.47383206400002 203.79660423045226 186.36 199.003173828125 186.36 C 194.20974342579774 186.36 190.32390110085228 182.47383206400002 190.32390110085228 177.68 Z"/></g><g transform="translate(-139,-62) scale(1,1)"><path fill="none" stroke="#000000" d="M 190.32390110085228 177.68 C 190.32390110085228 172.886167936 194.20974342579774 169 199.003173828125 169 C 203.79660423045226 169 207.68244655539772 172.886167936 207.68244655539772 177.68 C 207.68244655539772 182.47383206400002 203.79660423045226 186.36 199.003173828125 186.36 C 194.20974342579774 186.36 190.32390110085228 182.47383206400002 190.32390110085228 177.68 Z" stroke-miterlimit="10"/></g><g transform="translate(-139,-62) scale(1,1)"><path fill="none" stroke="#000000" d="M 199.003173828125 186.36 L 199.003173828125 203.64" stroke-miterlimit="10"/></g><g transform="translate(-139,-62) scale(1,1)"><path fill="none" stroke="#000000" d="M 189.81335564630683 192.84 L 208.19299200994317 192.84" stroke-miterlimit="10"/></g><g transform="translate(-139,-62) scale(1,1)"><path fill="none" stroke="#000000" d="M 199.003173828125 203.64 L 186.23953746448865 221" stroke-miterlimit="10"/></g><g transform="translate(-139,-62) scale(1,1)"><path fill="none" stroke="#000000" d="M 199.003173828125 203.64 L 211.76681019176135 221" stroke-miterlimit="10"/></g><g transform="translate(-139,-62) scale(1,1)"><g><path fill="none" stroke="none"/><text fill="#000000" stroke="none" font-family="Arial" font-size="13px" font-style="normal" font-weight="bold" text-decoration="none" x="156.0009765625" y="241.5">AtendenteSAC</text></g></g><g transform="translate(-139,-62) scale(1,1)"><path fill="#C0C0C0" stroke="none" d="M 407 160 C 407 150.6111584 446.6227952 143 495.5 143 C 544.3772048 143 584 150.6111584 584 160 C 584 169.3888416 544.3772048 177 495.5 177 C 446.6227952 177 407 169.3888416 407 160 Z" opacity="0.2"/></g><g transform="translate(-139,-62) scale(1,1)"><path fill="#ffffff" stroke="none" d="M 400 153 C 400 143.6111584 439.6227952 136 488.5 136 C 537.3772048 136 577 143.6111584 577 153 C 577 162.3888416 537.3772048 170 488.5 170 C 439.6227952 170 400 162.3888416 400 153 Z"/></g><g transform="translate(-139,-62) scale(1,1)"><path fill="none" stroke="#000000" d="M 400 153 C 400 143.6111584 439.6227952 136 488.5 136 C 537.3772048 136 577 143.6111584 577 153 C 577 162.3888416 537.3772048 170 488.5 170 C 439.6227952 170 400 162.3888416 400 153 Z" stroke-miterlimit="10"/></g><g transform="translate(-139,-62) scale(1,1)"><g><path fill="none" stroke="none"/><text fill="#000000" stroke="none" font-family="Arial" font-size="13px" font-style="normal" font-weight="bold" text-decoration="none" x="434.300537109375" y="160">Pesquisar Pedidos</text></g></g><g transform="translate(-139,-62) scale(1,1)"><path fill="#C0C0C0" stroke="none" d="M 383 264 C 383 254.6111584 430.2339536 247 488.5 247 C 546.7660464 247 594 254.6111584 594 264 C 594 273.3888416 546.7660464 281 488.5 281 C 430.2339536 281 383 273.3888416 383 264 Z" opacity="0.2"/></g><g transform="translate(-139,-62) scale(1,1)"><path fill="#ffffff" stroke="none" d="M 376 257 C 376 247.6111584 423.2339536 240 481.5 240 C 539.7660464 240 587 247.6111584 587 257 C 587 266.3888416 539.7660464 274 481.5 274 C 423.2339536 274 376 266.3888416 376 257 Z"/></g><g transform="translate(-139,-62) scale(1,1)"><path fill="none" stroke="#000000" d="M 376 257 C 376 247.6111584 423.2339536 240 481.5 240 C 539.7660464 240 587 247.6111584 587 257 C 587 266.3888416 539.7660464 274 481.5 274 C 423.2339536 274 376 266.3888416 376 257 Z" stroke-miterlimit="10"/></g><g transform="translate(-139,-62) scale(1,1)"><g><path fill="none" stroke="none"/><text fill="#000000" stroke="none" font-family="Arial" font-size="13px" font-style="normal" font-weight="bold" text-decoration="none" x="415.02734375" y="264">Gerenciar Reclamação</text></g></g><g transform="translate(-139,-62) scale(1,1)"><path fill="#C0C0C0" stroke="none" d="M 399 360 C 399 350.6111584 438.17508 343 486.5 343 C 534.82492 343 574 350.6111584 574 360 C 574 369.3888416 534.82492 377 486.5 377 C 438.17508 377 399 369.3888416 399 360 Z" opacity="0.2"/></g><g transform="translate(-139,-62) scale(1,1)"><path fill="#ffffff" stroke="none" d="M 392 353 C 392 343.6111584 431.17508 336 479.5 336 C 527.82492 336 567 343.6111584 567 353 C 567 362.3888416 527.82492 370 479.5 370 C 431.17508 370 392 362.3888416 392 353 Z"/></g><g transform="translate(-139,-62) scale(1,1)"><path fill="none" stroke="#000000" d="M 392 353 C 392 343.6111584 431.17508 336 479.5 336 C 527.82492 336 567 343.6111584 567 353 C 567 362.3888416 527.82492 370 479.5 370 C 431.17508 370 392 362.3888416 392 353 Z" stroke-miterlimit="10"/></g><g transform="translate(-139,-62) scale(1,1)"><g><path fill="none" stroke="none"/><text fill="#000000" stroke="none" font-family="Arial" font-size="13px" font-style="normal" font-weight="bold" text-decoration="none" x="425.671875" y="360">Gerenciar Dúvidas</text></g></g><g transform="translate(-139,-62) scale(1,1)"><path fill="none" stroke="#000000" d="M 249 184 L 279 184 L 279 153 L 400 153" stroke-miterlimit="10"/></g><g transform="translate(-139,-62) scale(1,1)"><path fill="none" stroke="#000000" d="M 389.83732514237585 157.209517756016 L 400 153 L 389.83732514237585 148.790482243984" stroke-miterlimit="10"/></g><g transform="translate(-139,-62) scale(1,1)"><path fill="none" stroke="#000000" d="M 249 208 L 279 208 L 279 257 L 376 257" stroke-miterlimit="10"/></g><g transform="translate(-139,-62) scale(1,1)"><path fill="none" stroke="#000000" d="M 365.83732514237585 261.209517756016 L 376 257 L 365.83732514237585 252.790482243984" stroke-miterlimit="10"/></g><g transform="translate(-139,-62) scale(1,1)"><path fill="none" stroke="#000000" d="M 199 247 L 199 264 L 279 264 L 279 353 L 392 353" stroke-miterlimit="10"/></g><g transform="translate(-139,-62) scale(1,1)"><path fill="none" stroke="#000000" d="M 381.83732514237585 357.209517756016 L 392 353 L 381.83732514237585 348.790482243984" stroke-miterlimit="10"/></g><g transform="translate(-139,-62) scale(1,1)"><path fill="none" stroke="#000000" d="M 481 240 L 481 220 L 480 220 L 480 170" stroke-miterlimit="10" stroke-dasharray="3"/></g><g transform="translate(-139,-62) scale(1,1)"><path fill="none" stroke="#000000" d="M 484.209517756016 180.16267485762415 L 480 170 L 475.790482243984 180.16267485762415" stroke-miterlimit="10"/></g></g></svg>