<svg version="1.1" xmlns="http://www.w3.org/2000/svg" xmlns:xlink="http://www.w3.org/1999/xlink" width="1126.74267578125" height="476"><defs/><g><text fill="#eeeeee" stroke="none" font-family="Arial" font-size="24px" font-style="normal" font-weight="normal" text-decoration="none" x="0" y="0">UNREGISTERED</text><text fill="#eeeeee" stroke="none" font-family="Arial" font-size="24px" font-style="normal" font-weight="normal" text-decoration="none" x="0" y="30">UNREGISTERED</text><text fill="#eeeeee" stroke="none" font-family="Arial" font-size="24px" font-style="normal" font-weight="normal" text-decoration="none" x="0" y="60">UNREGISTERED</text><text fill="#eeeeee" stroke="none" font-family="Arial" font-size="24px" font-style="normal" font-weight="normal" text-decoration="none" x="0" y="90">UNREGISTERED</text><text fill="#eeeeee" stroke="none" font-family="Arial" font-size="24px" font-style="normal" font-weight="normal" text-decoration="none" x="0" y="120">UNREGISTERED</text><text fill="#eeeeee" stroke="none" font-family="Arial" font-size="24px" font-style="normal" font-weight="normal" text-decoration="none" x="0" y="150">UNREGISTERED</text><text fill="#eeeeee" stroke="none" font-family="Arial" font-size="24px" font-style="normal" font-weight="normal" text-decoration="none" x="0" y="180">UNREGISTERED</text><text fill="#eeeeee" stroke="none" font-family="Arial" font-size="24px" font-style="normal" font-weight="normal" text-decoration="none" x="0" y="210">UNREGISTERED</text><text fill="#eeeeee" stroke="none" font-family="Arial" font-size="24px" font-style="normal" font-weight="normal" text-decoration="none" x="0" y="240">UNREGISTERED</text><text fill="#eeeeee" stroke="none" font-family="Arial" font-size="24px" font-style="normal" font-weight="normal" text-decoration="none" x="0" y="270">UNREGISTERED</text><text fill="#eeeeee" stroke="none" font-family="Arial" font-size="24px" font-style="normal" font-weight="normal" text-decoration="none" x="0" y="300">UNREGISTERED</text><text fill="#eeeeee" stroke="none" font-family="Arial" font-size="24px" font-style="normal" font-weight="normal" text-decoration="none" x="0" y="330">UNREGISTERED</text><text fill="#eeeeee" stroke="none" font-family="Arial" font-size="24px" font-style="normal" font-weight="normal" text-decoration="none" x="0" y="360">UNREGISTERED</text><text fill="#eeeeee" stroke="none" font-family="Arial" font-size="24px" font-style="normal" font-weight="normal" text-decoration="none" x="0" y="390">UNREGISTERED</text><text fill="#eeeeee" stroke="none" font-family="Arial" font-size="24px" font-style="normal" font-weight="normal" text-decoration="none" x="0" y="420">UNREGISTERED</text><text fill="#eeeeee" stroke="none" font-family="Arial" font-size="24px" font-style="normal" font-weight="normal" text-decoration="none" x="0" y="450">UNREGISTERED</text><text fill="#eeeeee" stroke="none" font-family="Arial" font-size="24px" font-style="normal" font-weight="normal" text-decoration="none" x="200" y="0">UNREGISTERED</text><text fill="#eeeeee" stroke="none" font-family="Arial" font-size="24px" font-style="normal" font-weight="normal" text-decoration="none" x="200" y="30">UNREGISTERED</text><text fill="#eeeeee" stroke="none" font-family="Arial" font-size="24px" font-style="normal" font-weight="normal" text-decoration="none" x="200" y="60">UNREGISTERED</text><text fill="#eeeeee" stroke="none" font-family="Arial" font-size="24px" font-style="normal" font-weight="normal" text-decoration="none" x="200" y="90">UNREGISTERED</text><text fill="#eeeeee" stroke="none" font-family="Arial" font-size="24px" font-style="normal" font-weight="normal" text-decoration="none" x="200" y="120">UNREGISTERED</text><text fill="#eeeeee" stroke="none" font-family="Arial" font-size="24px" font-style="normal" font-weight="normal" text-decoration="none" x="200" y="150">UNREGISTERED</text><text fill="#eeeeee" stroke="none" font-family="Arial" font-size="24px" font-style="normal" font-weight="normal" text-decoration="none" x="200" y="180">UNREGISTERED</text><text fill="#eeeeee" stroke="none" font-family="Arial" font-size="24px" font-style="normal" font-weight="normal" text-decoration="none" x="200" y="210">UNREGISTERED</text><text fill="#eeeeee" stroke="none" font-family="Arial" font-size="24px" font-style="normal" font-weight="normal" text-decoration="none" x="200" y="240">UNREGISTERED</text><text fill="#eeeeee" stroke="none" font-family="Arial" font-size="24px" font-style="normal" font-weight="normal" text-decoration="none" x="200" y="270">UNREGISTERED</text><text fill="#eeeeee" stroke="none" font-family="Arial" font-size="24px" font-style="normal" font-weight="normal" text-decoration="none" x="200" y="300">UNREGISTERED</text><text fill="#eeeeee" stroke="none" font-family="Arial" font-size="24px" font-style="normal" font-weight="normal" text-decoration="none" x="200" y="330">UNREGISTERED</text><text fill="#eeeeee" stroke="none" font-family="Arial" font-size="24px" font-style="normal" font-weight="normal" text-decoration="none" x="200" y="360">UNREGISTERED</text><text fill="#eeeeee" stroke="none" font-family="Arial" font-size="24px" font-style="normal" font-weight="normal" text-decoration="none" x="200" y="390">UNREGISTERED</text><text fill="#eeeeee" stroke="none" font-family="Arial" font-size="24px" font-style="normal" font-weight="normal" text-decoration="none" x="200" y="420">UNREGISTERED</text><text fill="#eeeeee" stroke="none" font-family="Arial" font-size="24px" font-style="normal" font-weight="normal" text-decoration="none" x="200" y="450">UNREGISTERED</text><text fill="#eeeeee" stroke="none" font-family="Arial" font-size="24px" font-style="normal" font-weight="normal" text-decoration="none" x="400" y="0">UNREGISTERED</text><text fill="#eeeeee" stroke="none" font-family="Arial" font-size="24px" font-style="normal" font-weight="normal" text-decoration="none" x="400" y="30">UNREGISTERED</text><text fill="#eeeeee" stroke="none" font-family="Arial" font-size="24px" font-style="normal" font-weight="normal" text-decoration="none" x="400" y="60">UNREGISTERED</text><text fill="#eeeeee" stroke="none" font-family="Arial" font-size="24px" font-style="normal" font-weight="normal" text-decoration="none" x="400" y="90">UNREGISTERED</text><text fill="#eeeeee" stroke="none" font-family="Arial" font-size="24px" font-style="normal" font-weight="normal" text-decoration="none" x="400" y="120">UNREGISTERED</text><text fill="#eeeeee" stroke="none" font-family="Arial" font-size="24px" font-style="normal" font-weight="normal" text-decoration="none" x="400" y="150">UNREGISTERED</text><text fill="#eeeeee" stroke="none" font-family="Arial" font-size="24px" font-style="normal" font-weight="normal" text-decoration="none" x="400" y="180">UNREGISTERED</text><text fill="#eeeeee" stroke="none" font-family="Arial" font-size="24px" font-style="normal" font-weight="normal" text-decoration="none" x="400" y="210">UNREGISTERED</text><text fill="#eeeeee" stroke="none" font-family="Arial" font-size="24px" font-style="normal" font-weight="normal" text-decoration="none" x="400" y="240">UNREGISTERED</text><text fill="#eeeeee" stroke="none" font-family="Arial" font-size="24px" font-style="normal" font-weight="normal" text-decoration="none" x="400" y="270">UNREGISTERED</text><text fill="#eeeeee" stroke="none" font-family="Arial" font-size="24px" font-style="normal" font-weight="normal" text-decoration="none" x="400" y="300">UNREGISTERED</text><text fill="#eeeeee" stroke="none" font-family="Arial" font-size="24px" font-style="normal" font-weight="normal" text-decoration="none" x="400" y="330">UNREGISTERED</text><text fill="#eeeeee" stroke="none" font-family="Arial" font-size="24px" font-style="normal" font-weight="normal" text-decoration="none" x="400" y="360">UNREGISTERED</text><text fill="#eeeeee" stroke="none" font-family="Arial" font-size="24px" font-style="normal" font-weight="normal" text-decoration="none" x="400" y="390">UNREGISTERED</text><text fill="#eeeeee" stroke="none" font-family="Arial" font-size="24px" font-style="normal" font-weight="normal" text-decoration="none" x="400" y="420">UNREGISTERED</text><text fill="#eeeeee" stroke="none" font-family="Arial" font-size="24px" font-style="normal" font-weight="normal" text-decoration="none" x="400" y="450">UNREGISTERED</text><text fill="#eeeeee" stroke="none" font-family="Arial" font-size="24px" font-style="normal" font-weight="normal" text-decoration="none" x="600" y="0">UNREGISTERED</text><text fill="#eeeeee" stroke="none" font-family="Arial" font-size="24px" font-style="normal" font-weight="normal" text-decoration="none" x="600" y="30">UNREGISTERED</text><text fill="#eeeeee" stroke="none" font-family="Arial" font-size="24px" font-style="normal" font-weight="normal" text-decoration="none" x="600" y="60">UNREGISTERED</text><text fill="#eeeeee" stroke="none" font-family="Arial" font-size="24px" font-style="normal" font-weight="normal" text-decoration="none" x="600" y="90">UNREGISTERED</text><text fill="#eeeeee" stroke="none" font-family="Arial" font-size="24px" font-style="normal" font-weight="normal" text-decoration="none" x="600" y="120">UNREGISTERED</text><text fill="#eeeeee" stroke="none" font-family="Arial" font-size="24px" font-style="normal" font-weight="normal" text-decoration="none" x="600" y="150">UNREGISTERED</text><text fill="#eeeeee" stroke="none" font-family="Arial" font-size="24px" font-style="normal" font-weight="normal" text-decoration="none" x="600" y="180">UNREGISTERED</text><text fill="#eeeeee" stroke="none" font-family="Arial" font-size="24px" font-style="normal" font-weight="normal" text-decoration="none" x="600" y="210">UNREGISTERED</text><text fill="#eeeeee" stroke="none" font-family="Arial" font-size="24px" font-style="normal" font-weight="normal" text-decoration="none" x="600" y="240">UNREGISTERED</text><text fill="#eeeeee" stroke="none" font-family="Arial" font-size="24px" font-style="normal" font-weight="normal" text-decoration="none" x="600" y="270">UNREGISTERED</text><text fill="#eeeeee" stroke="none" font-family="Arial" font-size="24px" font-style="normal" font-weight="normal" text-decoration="none" x="600" y="300">UNREGISTERED</text><text fill="#eeeeee" stroke="none" font-family="Arial" font-size="24px" font-style="normal" font-weight="normal" text-decoration="none" x="600" y="330">UNREGISTERED</text><text fill="#eeeeee" stroke="none" font-family="Arial" font-size="24px" font-style="normal" font-weight="normal" text-decoration="none" x="600" y="360">UNREGISTERED</text><text fill="#eeeeee" stroke="none" font-family="Arial" font-size="24px" font-style="normal" font-weight="normal" text-decoration="none" x="600" y="390">UNREGISTERED</text><text fill="#eeeeee" stroke="none" font-family="Arial" font-size="24px" font-style="normal" font-weight="normal" text-decoration="none" x="600" y="420">UNREGISTERED</text><text fill="#eeeeee" stroke="none" font-family="Arial" font-size="24px" font-style="normal" font-weight="normal" text-decoration="none" x="600" y="450">UNREGISTERED</text><text fill="#eeeeee" stroke="none" font-family="Arial" font-size="24px" font-style="normal" font-weight="normal" text-decoration="none" x="800" y="0">UNREGISTERED</text><text fill="#eeeeee" stroke="none" font-family="Arial" font-size="24px" font-style="normal" font-weight="normal" text-decoration="none" x="800" y="30">UNREGISTERED</text><text fill="#eeeeee" stroke="none" font-family="Arial" font-size="24px" font-style="normal" font-weight="normal" text-decoration="none" x="800" y="60">UNREGISTERED</text><text fill="#eeeeee" stroke="none" font-family="Arial" font-size="24px" font-style="normal" font-weight="normal" text-decoration="none" x="800" y="90">UNREGISTERED</text><text fill="#eeeeee" stroke="none" font-family="Arial" font-size="24px" font-style="normal" font-weight="normal" text-decoration="none" x="800" y="120">UNREGISTERED</text><text fill="#eeeeee" stroke="none" font-family="Arial" font-size="24px" font-style="normal" font-weight="normal" text-decoration="none" x="800" y="150">UNREGISTERED</text><text fill="#eeeeee" stroke="none" font-family="Arial" font-size="24px" font-style="normal" font-weight="normal" text-decoration="none" x="800" y="180">UNREGISTERED</text><text fill="#eeeeee" stroke="none" font-family="Arial" font-size="24px" font-style="normal" font-weight="normal" text-decoration="none" x="800" y="210">UNREGISTERED</text><text fill="#eeeeee" stroke="none" font-family="Arial" font-size="24px" font-style="normal" font-weight="normal" text-decoration="none" x="800" y="240">UNREGISTERED</text><text fill="#eeeeee" stroke="none" font-family="Arial" font-size="24px" font-style="normal" font-weight="normal" text-decoration="none" x="800" y="270">UNREGISTERED</text><text fill="#eeeeee" stroke="none" font-family="Arial" font-size="24px" font-style="normal" font-weight="normal" text-decoration="none" x="800" y="300">UNREGISTERED</text><text fill="#eeeeee" stroke="none" font-family="Arial" font-size="24px" font-style="normal" font-weight="normal" text-decoration="none" x="800" y="330">UNREGISTERED</text><text fill="#eeeeee" stroke="none" font-family="Arial" font-size="24px" font-style="normal" font-weight="normal" text-decoration="none" x="800" y="360">UNREGISTERED</text><text fill="#eeeeee" stroke="none" font-family="Arial" font-size="24px" font-style="normal" font-weight="normal" text-decoration="none" x="800" y="390">UNREGISTERED</text><text fill="#eeeeee" stroke="none" font-family="Arial" font-size="24px" font-style="normal" font-weight="normal" text-decoration="none" x="800" y="420">UNREGISTERED</text><text fill="#eeeeee" stroke="none" font-family="Arial" font-size="24px" font-style="normal" font-weight="normal" text-decoration="none" x="800" y="450">UNREGISTERED</text><text fill="#eeeeee" stroke="none" font-family="Arial" font-size="24px" font-style="normal" font-weight="normal" text-decoration="none" x="1000" y="0">UNREGISTERED</text><text fill="#eeeeee" stroke="none" font-family="Arial" font-size="24px" font-style="normal" font-weight="normal" text-decoration="none" x="1000" y="30">UNREGISTERED</text><text fill="#eeeeee" stroke="none" font-family="Arial" font-size="24px" font-style="normal" font-weight="normal" text-decoration="none" x="1000" y="60">UNREGISTERED</text><text fill="#eeeeee" stroke="none" font-family="Arial" font-size="24px" font-style="normal" font-weight="normal" text-decoration="none" x="1000" y="90">UNREGISTERED</text><text fill="#eeeeee" stroke="none" font-family="Arial" font-size="24px" font-style="normal" font-weight="normal" text-decoration="none" x="1000" y="120">UNREGISTERED</text><text fill="#eeeeee" stroke="none" font-family="Arial" font-size="24px" font-style="normal" font-weight="normal" text-decoration="none" x="1000" y="150">UNREGISTERED</text><text fill="#eeeeee" stroke="none" font-family="Arial" font-size="24px" font-style="normal" font-weight="normal" text-decoration="none" x="1000" y="180">UNREGISTERED</text><text fill="#eeeeee" stroke="none" font-family="Arial" font-size="24px" font-style="normal" font-weight="normal" text-decoration="none" x="1000" y="210">UNREGISTERED</text><text fill="#eeeeee" stroke="none" font-family="Arial" font-size="24px" font-style="normal" font-weight="normal" text-decoration="none" x="1000" y="240">UNREGISTERED</text><text fill="#eeeeee" stroke="none" font-family="Arial" font-size="24px" font-style="normal" font-weight="normal" text-decoration="none" x="1000" y="270">UNREGISTERED</text><text fill="#eeeeee" stroke="none" font-family="Arial" font-size="24px" font-style="normal" font-weight="normal" text-decoration="none" x="1000" y="300">UNREGISTERED</text><text fill="#eeeeee" stroke="none" font-family="Arial" font-size="24px" font-style="normal" font-weight="normal" text-decoration="none" x="1000" y="330">UNREGISTERED</text><text fill="#eeeeee" stroke="none" font-family="Arial" font-size="24px" font-style="normal" font-weight="normal" text-decoration="none" x="1000" y="360">UNREGISTERED</text><text fill="#eeeeee" stroke="none" font-family="Arial" font-size="24px" font-style="normal" font-weight="normal" text-decoration="none" x="1000" y="390">UNREGISTERED</text><text fill="#eeeeee" stroke="none" font-family="Arial" font-size="24px" font-style="normal" font-weight="normal" text-decoration="none" x="1000" y="420">UNREGISTERED</text><text fill="#eeeeee" stroke="none" font-family="Arial" font-size="24px" font-style="normal" font-weight="normal" text-decoration="none" x="1000" y="450">UNREGISTERED</text><g transform="translate(-134,-14) scale(1,1)"><rect fill="#C0C0C0" stroke="none" x="247" y="31" width="360" height="352" opacity="0.2"/></g><g transform="translate(-134,-14) scale(1,1)"><rect fill="#ffffff" stroke="none" x="240" y="24" width="360" height="352"/></g><g transform="translate(-134,-14) scale(1,1)"><path fill="none" stroke="#000000" d="M 240 24 L 600 24 L 600 376 L 240 376 L 240 24 Z Z" stroke-miterlimit="10"/></g><g transform="translate(-134,-14) scale(1,1)"><g><path fill="none" stroke="none"/><text fill="#000000" stroke="none" font-family="Arial" font-size="13px" font-style="normal" font-weight="bold" text-decoration="none" x="369.056884765625" y="43.5">Módulo Gerencial</text></g></g><g transform="translate(-134,-14) scale(1,1)"><rect fill="#C0C0C0" stroke="none" x="647" y="31" width="288" height="456" opacity="0.2"/></g><g transform="translate(-134,-14) scale(1,1)"><rect fill="#ffffff" stroke="none" x="640" y="24" width="288" height="456"/></g><g transform="translate(-134,-14) scale(1,1)"><path fill="none" stroke="#000000" d="M 640 24 L 928 24 L 928 480 L 640 480 L 640 24 Z Z" stroke-miterlimit="10"/></g><g transform="translate(-134,-14) scale(1,1)"><g><path fill="none" stroke="none"/><text fill="#000000" stroke="none" font-family="Arial" font-size="13px" font-style="normal" font-weight="bold" text-decoration="none" x="718.95556640625" y="43.5">Módulo de Inteligência</text></g></g><g transform="translate(-134,-14) scale(1,1)"><path fill="#ffffff" stroke="none" d="M 153.18254367897728 161.68 C 153.18254367897728 156.886167936 157.06838600392274 153 161.86181640625 153 C 166.65524680857726 153 170.54108913352272 156.886167936 170.54108913352272 161.68 C 170.54108913352272 166.47383206400002 166.65524680857726 170.36 161.86181640625 170.36 C 157.06838600392274 170.36 153.18254367897728 166.47383206400002 153.18254367897728 161.68 Z"/></g><g transform="translate(-134,-14) scale(1,1)"><path fill="none" stroke="#000000" d="M 153.18254367897728 161.68 C 153.18254367897728 156.886167936 157.06838600392274 153 161.86181640625 153 C 166.65524680857726 153 170.54108913352272 156.886167936 170.54108913352272 161.68 C 170.54108913352272 166.47383206400002 166.65524680857726 170.36 161.86181640625 170.36 C 157.06838600392274 170.36 153.18254367897728 166.47383206400002 153.18254367897728 161.68 Z" stroke-miterlimit="10"/></g><g transform="translate(-134,-14) scale(1,1)"><path fill="none" stroke="#000000" d="M 161.86181640625 170.36 L 161.86181640625 187.64" stroke-miterlimit="10"/></g><g transform="translate(-134,-14) scale(1,1)"><path fill="none" stroke="#000000" d="M 152.67199822443183 176.84 L 171.05163458806817 176.84" stroke-miterlimit="10"/></g><g transform="translate(-134,-14) scale(1,1)"><path fill="none" stroke="#000000" d="M 161.86181640625 187.64 L 149.09818004261365 205" stroke-miterlimit="10"/></g><g transform="translate(-134,-14) scale(1,1)"><path fill="none" stroke="#000000" d="M 161.86181640625 187.64 L 174.62545276988635 205" stroke-miterlimit="10"/></g><g transform="translate(-134,-14) scale(1,1)"><g><path fill="none" stroke="none"/><text fill="#000000" stroke="none" font-family="Arial" font-size="13px" font-style="normal" font-weight="bold" text-decoration="none" x="149.57275390625" y="225.5">Loja</text></g></g><g transform="translate(-134,-14) scale(1,1)"><path fill="#C0C0C0" stroke="none" d="M 279 80 C 279 70.6111584 346.8288528 63 430.5 63 C 514.1711472 63 582 70.6111584 582 80 C 582 89.3888416 514.1711472 97 430.5 97 C 346.8288528 97 279 89.3888416 279 80 Z" opacity="0.2"/></g><g transform="translate(-134,-14) scale(1,1)"><path fill="#ffffff" stroke="none" d="M 272 73 C 272 63.6111584 339.8288528 56 423.5 56 C 507.1711472 56 575 63.6111584 575 73 C 575 82.3888416 507.1711472 90 423.5 90 C 339.8288528 90 272 82.3888416 272 73 Z"/></g><g transform="translate(-134,-14) scale(1,1)"><path fill="none" stroke="#000000" d="M 272 73 C 272 63.6111584 339.8288528 56 423.5 56 C 507.1711472 56 575 63.6111584 575 73 C 575 82.3888416 507.1711472 90 423.5 90 C 339.8288528 90 272 82.3888416 272 73 Z" stroke-miterlimit="10"/></g><g transform="translate(-134,-14) scale(1,1)"><g><path fill="none" stroke="none"/><text fill="#000000" stroke="none" font-family="Arial" font-size="13px" font-style="normal" font-weight="bold" text-decoration="none" x="326.669677734375" y="80">Gerar Informações Sobre Vendas</text></g></g><g transform="translate(-134,-14) scale(1,1)"><path fill="#C0C0C0" stroke="none" d="M 263 192 C 263 182.6111584 333.9628592 175 421.5 175 C 509.0371408 175 580 182.6111584 580 192 C 580 201.3888416 509.0371408 209 421.5 209 C 333.9628592 209 263 201.3888416 263 192 Z" opacity="0.2"/></g><g transform="translate(-134,-14) scale(1,1)"><path fill="#ffffff" stroke="none" d="M 256 185 C 256 175.6111584 326.9628592 168 414.5 168 C 502.0371408 168 573 175.6111584 573 185 C 573 194.3888416 502.0371408 202 414.5 202 C 326.9628592 202 256 194.3888416 256 185 Z"/></g><g transform="translate(-134,-14) scale(1,1)"><path fill="none" stroke="#000000" d="M 256 185 C 256 175.6111584 326.9628592 168 414.5 168 C 502.0371408 168 573 175.6111584 573 185 C 573 194.3888416 502.0371408 202 414.5 202 C 326.9628592 202 256 194.3888416 256 185 Z" stroke-miterlimit="10"/></g><g transform="translate(-134,-14) scale(1,1)"><g><path fill="none" stroke="none"/><text fill="#000000" stroke="none" font-family="Arial" font-size="13px" font-style="normal" font-weight="bold" text-decoration="none" x="313.340576171875" y="192">Gerar Informações Sobre Entregas</text></g></g><g transform="translate(-134,-14) scale(1,1)"><path fill="#C0C0C0" stroke="none" d="M 263 328 C 263 318.6111584 337.7684384 311 430 311 C 522.2315616 311 597 318.6111584 597 328 C 597 337.3888416 522.2315616 345 430 345 C 337.7684384 345 263 337.3888416 263 328 Z" opacity="0.2"/></g><g transform="translate(-134,-14) scale(1,1)"><path fill="#ffffff" stroke="none" d="M 256 321 C 256 311.6111584 330.7684384 304 423 304 C 515.2315616 304 590 311.6111584 590 321 C 590 330.3888416 515.2315616 338 423 338 C 330.7684384 338 256 330.3888416 256 321 Z"/></g><g transform="translate(-134,-14) scale(1,1)"><path fill="none" stroke="#000000" d="M 256 321 C 256 311.6111584 330.7684384 304 423 304 C 515.2315616 304 590 311.6111584 590 321 C 590 330.3888416 515.2315616 338 423 338 C 330.7684384 338 256 330.3888416 256 321 Z" stroke-miterlimit="10"/></g><g transform="translate(-134,-14) scale(1,1)"><g><path fill="none" stroke="none"/><text fill="#000000" stroke="none" font-family="Arial" font-size="13px" font-style="normal" font-weight="bold" text-decoration="none" x="316.540283203125" y="328">Gerar Informações Sobre Avaliações</text></g></g><g transform="translate(-134,-14) scale(1,1)"><path fill="none" stroke="#000000" d="M 161 152 L 161 131 L 160 131 L 160 73 L 272 73" stroke-miterlimit="10"/></g><g transform="translate(-134,-14) scale(1,1)"><path fill="none" stroke="#000000" d="M 261.83732514237585 77.20951775601598 L 272 73 L 261.83732514237585 68.79048224398402" stroke-miterlimit="10"/></g><g transform="translate(-134,-14) scale(1,1)"><path fill="none" stroke="#000000" d="M 180 184 L 256 184" stroke-miterlimit="10"/></g><g transform="translate(-134,-14) scale(1,1)"><path fill="none" stroke="#000000" d="M 245.83732514237585 188.209517756016 L 256 184 L 245.83732514237585 179.790482243984" stroke-miterlimit="10"/></g><g transform="translate(-134,-14) scale(1,1)"><path fill="none" stroke="#000000" d="M 161 231 L 161 320 L 208 320 L 208 321 L 256 321" stroke-miterlimit="10"/></g><g transform="translate(-134,-14) scale(1,1)"><path fill="none" stroke="#000000" d="M 245.83732514237585 325.209517756016 L 256 321 L 245.83732514237585 316.790482243984" stroke-miterlimit="10"/></g><g transform="translate(-134,-14) scale(1,1)"><path fill="#C0C0C0" stroke="none" d="M 703 72 C 703 62.6111584 740.3842192 55 786.5 55 C 832.6157808 55 870 62.6111584 870 72 C 870 81.3888416 832.6157808 89 786.5 89 C 740.3842192 89 703 81.3888416 703 72 Z" opacity="0.2"/></g><g transform="translate(-134,-14) scale(1,1)"><path fill="#ffffff" stroke="none" d="M 696 65 C 696 55.6111584 733.3842192 48 779.5 48 C 825.6157808 48 863 55.6111584 863 65 C 863 74.3888416 825.6157808 82 779.5 82 C 733.3842192 82 696 74.3888416 696 65 Z"/></g><g transform="translate(-134,-14) scale(1,1)"><path fill="none" stroke="#000000" d="M 696 65 C 696 55.6111584 733.3842192 48 779.5 48 C 825.6157808 48 863 55.6111584 863 65 C 863 74.3888416 825.6157808 82 779.5 82 C 733.3842192 82 696 74.3888416 696 65 Z" stroke-miterlimit="10"/></g><g transform="translate(-134,-14) scale(1,1)"><g><path fill="none" stroke="none"/><text fill="#000000" stroke="none" font-family="Arial" font-size="13px" font-style="normal" font-weight="bold" text-decoration="none" x="728.5537109375" y="72">Monitorar Vendas</text></g></g><g transform="translate(-134,-14) scale(1,1)"><path fill="#C0C0C0" stroke="none" d="M 695 112 C 695 102.6111584 735.5182256 95 785.5 95 C 835.4817744 95 876 102.6111584 876 112 C 876 121.3888416 835.4817744 129 785.5 129 C 735.5182256 129 695 121.3888416 695 112 Z" opacity="0.2"/></g><g transform="translate(-134,-14) scale(1,1)"><path fill="#ffffff" stroke="none" d="M 688 105 C 688 95.6111584 728.5182256 88 778.5 88 C 828.4817744 88 869 95.6111584 869 105 C 869 114.3888416 828.4817744 122 778.5 122 C 728.5182256 122 688 114.3888416 688 105 Z"/></g><g transform="translate(-134,-14) scale(1,1)"><path fill="none" stroke="#000000" d="M 688 105 C 688 95.6111584 728.5182256 88 778.5 88 C 828.4817744 88 869 95.6111584 869 105 C 869 114.3888416 828.4817744 122 778.5 122 C 728.5182256 122 688 114.3888416 688 105 Z" stroke-miterlimit="10"/></g><g transform="translate(-134,-14) scale(1,1)"><g><path fill="none" stroke="none"/><text fill="#000000" stroke="none" font-family="Arial" font-size="13px" font-style="normal" font-weight="bold" text-decoration="none" x="723.224609375" y="112">Monitorar Entregas</text></g></g><g transform="translate(-134,-14) scale(1,1)"><path fill="#C0C0C0" stroke="none" d="M 687 160 C 687 150.6111584 731.3238048 143 786 143 C 840.6761952 143 885 150.6111584 885 160 C 885 169.3888416 840.6761952 177 786 177 C 731.3238048 177 687 169.3888416 687 160 Z" opacity="0.2"/></g><g transform="translate(-134,-14) scale(1,1)"><path fill="#ffffff" stroke="none" d="M 680 153 C 680 143.6111584 724.3238048 136 779 136 C 833.6761952 136 878 143.6111584 878 153 C 878 162.3888416 833.6761952 170 779 170 C 724.3238048 170 680 162.3888416 680 153 Z"/></g><g transform="translate(-134,-14) scale(1,1)"><path fill="none" stroke="#000000" d="M 680 153 C 680 143.6111584 724.3238048 136 779 136 C 833.6761952 136 878 143.6111584 878 153 C 878 162.3888416 833.6761952 170 779 170 C 724.3238048 170 680 162.3888416 680 153 Z" stroke-miterlimit="10"/></g><g transform="translate(-134,-14) scale(1,1)"><g><path fill="none" stroke="none"/><text fill="#000000" stroke="none" font-family="Arial" font-size="13px" font-style="normal" font-weight="bold" text-decoration="none" x="718.42431640625" y="160">Monitorar Avaliações</text></g></g><g transform="translate(-134,-14) scale(1,1)"><path fill="#C0C0C0" stroke="none" d="M 671 224 C 671 214.6111584 725.3973968 207 792.5 207 C 859.6026032 207 914 214.6111584 914 224 C 914 233.3888416 859.6026032 241 792.5 241 C 725.3973968 241 671 233.3888416 671 224 Z" opacity="0.2"/></g><g transform="translate(-134,-14) scale(1,1)"><path fill="#ffffff" stroke="none" d="M 664 217 C 664 207.6111584 718.3973968 200 785.5 200 C 852.6026032 200 907 207.6111584 907 217 C 907 226.3888416 852.6026032 234 785.5 234 C 718.3973968 234 664 226.3888416 664 217 Z"/></g><g transform="translate(-134,-14) scale(1,1)"><path fill="none" stroke="#000000" d="M 664 217 C 664 207.6111584 718.3973968 200 785.5 200 C 852.6026032 200 907 207.6111584 907 217 C 907 226.3888416 852.6026032 234 785.5 234 C 718.3973968 234 664 226.3888416 664 217 Z" stroke-miterlimit="10"/></g><g transform="translate(-134,-14) scale(1,1)"><g><path fill="none" stroke="none"/><text fill="#000000" stroke="none" font-family="Arial" font-size="13px" font-style="normal" font-weight="bold" text-decoration="none" x="708.537841796875" y="224">Gerar Relatório de Vendas</text></g></g><g transform="translate(-134,-14) scale(1,1)"><path fill="#C0C0C0" stroke="none" d="M 663 280 C 663 270.6111584 720.9791184000001 263 792.5 263 C 864.0208815999999 263 922 270.6111584 922 280 C 922 289.3888416 864.0208815999999 297 792.5 297 C 720.9791184000001 297 663 289.3888416 663 280 Z" opacity="0.2"/></g><g transform="translate(-134,-14) scale(1,1)"><path fill="#ffffff" stroke="none" d="M 656 273 C 656 263.6111584 713.9791184000001 256 785.5 256 C 857.0208815999999 256 915 263.6111584 915 273 C 915 282.3888416 857.0208815999999 290 785.5 290 C 713.9791184000001 290 656 282.3888416 656 273 Z"/></g><g transform="translate(-134,-14) scale(1,1)"><path fill="none" stroke="#000000" d="M 656 273 C 656 263.6111584 713.9791184000001 256 785.5 256 C 857.0208815999999 256 915 263.6111584 915 273 C 915 282.3888416 857.0208815999999 290 785.5 290 C 713.9791184000001 290 656 282.3888416 656 273 Z" stroke-miterlimit="10"/></g><g transform="translate(-134,-14) scale(1,1)"><g><path fill="none" stroke="none"/><text fill="#000000" stroke="none" font-family="Arial" font-size="13px" font-style="normal" font-weight="bold" text-decoration="none" x="704.208740234375" y="280">Gerar Relatório de Produtos</text></g></g><g transform="translate(-134,-14) scale(1,1)"><path fill="none" stroke="#000000" d="M 575 72 L 696 72" stroke-miterlimit="10" stroke-dasharray="3"/></g><g transform="translate(-134,-14) scale(1,1)"><path fill="none" stroke="#000000" d="M 685.8373251423759 76.20951775601598 L 696 72 L 685.8373251423758 67.79048224398402" stroke-miterlimit="10"/></g><g transform="translate(-134,-14) scale(1,1)"><g><path fill="none" stroke="none"/><text fill="#000000" stroke="none" font-family="Arial" font-size="13px" font-style="normal" font-weight="normal" text-decoration="none" x="607.5" y="48.5">«include»</text></g></g><g transform="translate(-134,-14) scale(1,1)"><path fill="none" stroke="#000000" d="M 414 168 L 414 148 L 602 148 L 602 105 L 688 105" stroke-miterlimit="10" stroke-dasharray="3"/></g><g transform="translate(-134,-14) scale(1,1)"><path fill="none" stroke="#000000" d="M 677.8373251423759 109.20951775601598 L 688 105 L 677.8373251423758 100.79048224398402" stroke-miterlimit="10"/></g><g transform="translate(-134,-14) scale(1,1)"><g><path fill="none" stroke="none"/><text fill="#000000" stroke="none" font-family="Arial" font-size="13px" font-style="normal" font-weight="normal" text-decoration="none" x="544.5" y="153.5">«include»</text></g></g><g transform="translate(-134,-14) scale(1,1)"><path fill="none" stroke="#000000" d="M 423 304 L 423 284 L 620 284 L 620 153 L 680 153" stroke-miterlimit="10" stroke-dasharray="3"/></g><g transform="translate(-134,-14) scale(1,1)"><path fill="none" stroke="#000000" d="M 669.8373251423759 157.209517756016 L 680 153 L 669.8373251423758 148.790482243984" stroke-miterlimit="10"/></g><g transform="translate(-134,-14) scale(1,1)"><g><path fill="none" stroke="none"/><text fill="#000000" stroke="none" font-family="Arial" font-size="13px" font-style="normal" font-weight="normal" text-decoration="none" x="562.5" y="289.5">«include»</text></g></g><g transform="translate(-134,-14) scale(1,1)"><path fill="#ffffff" stroke="none" d="M 1165.6920651633523 130.68 C 1165.6920651633523 125.886167936 1169.5779074882978 122 1174.371337890625 122 C 1179.1647682929522 122 1183.0506106178977 125.886167936 1183.0506106178977 130.68 C 1183.0506106178977 135.47383206400002 1179.1647682929522 139.36 1174.371337890625 139.36 C 1169.5779074882978 139.36 1165.6920651633523 135.47383206400002 1165.6920651633523 130.68 Z"/></g><g transform="translate(-134,-14) scale(1,1)"><path fill="none" stroke="#000000" d="M 1165.6920651633523 130.68 C 1165.6920651633523 125.886167936 1169.5779074882978 122 1174.371337890625 122 C 1179.1647682929522 122 1183.0506106178977 125.886167936 1183.0506106178977 130.68 C 1183.0506106178977 135.47383206400002 1179.1647682929522 139.36 1174.371337890625 139.36 C 1169.5779074882978 139.36 1165.6920651633523 135.47383206400002 1165.6920651633523 130.68 Z" stroke-miterlimit="10"/></g><g transform="translate(-134,-14) scale(1,1)"><path fill="none" stroke="#000000" d="M 1174.371337890625 139.36 L 1174.371337890625 156.64" stroke-miterlimit="10"/></g><g transform="translate(-134,-14) scale(1,1)"><path fill="none" stroke="#000000" d="M 1165.1815197088067 145.84 L 1183.5611560724433 145.84" stroke-miterlimit="10"/></g><g transform="translate(-134,-14) scale(1,1)"><path fill="none" stroke="#000000" d="M 1174.371337890625 156.64 L 1161.6077015269886 174" stroke-miterlimit="10"/></g><g transform="translate(-134,-14) scale(1,1)"><path fill="none" stroke="#000000" d="M 1174.371337890625 156.64 L 1187.1349742542614 174" stroke-miterlimit="10"/></g><g transform="translate(-134,-14) scale(1,1)"><g><path fill="none" stroke="none"/><text fill="#000000" stroke="none" font-family="Arial" font-size="13px" font-style="normal" font-weight="bold" text-decoration="none" x="1107.536865234375" y="194.5">SistemaMonitoramento</text></g></g><g transform="translate(-134,-14) scale(1,1)"><path fill="none" stroke="#000000" d="M 1174 121 L 1174 100 L 1168 100 L 1168 65 L 863 65" stroke-miterlimit="10"/></g><g transform="translate(-134,-14) scale(1,1)"><path fill="none" stroke="#000000" d="M 873.1626748576241 60.790482243984016 L 863 65 L 873.1626748576241 69.20951775601598" stroke-miterlimit="10"/></g><g transform="translate(-134,-14) scale(1,1)"><path fill="none" stroke="#000000" d="M 1160 121 L 1160 104 L 869 104" stroke-miterlimit="10"/></g><g transform="translate(-134,-14) scale(1,1)"><path fill="none" stroke="#000000" d="M 879.1626748576241 99.79048224398402 L 869 104 L 879.1626748576241 108.20951775601598" stroke-miterlimit="10"/></g><g transform="translate(-134,-14) scale(1,1)"><path fill="none" stroke="#000000" d="M 1176 200 L 1176 217 L 907 217" stroke-miterlimit="10"/></g><g transform="translate(-134,-14) scale(1,1)"><path fill="none" stroke="#000000" d="M 917.1626748576241 212.790482243984 L 907 217 L 917.1626748576241 221.209517756016" stroke-miterlimit="10"/></g><g transform="translate(-134,-14) scale(1,1)"><path fill="none" stroke="#000000" d="M 1098 152 L 878 152" stroke-miterlimit="10"/></g><g transform="translate(-134,-14) scale(1,1)"><path fill="none" stroke="#000000" d="M 888.1626748576241 147.790482243984 L 878 152 L 888.1626748576241 156.209517756016" stroke-miterlimit="10"/></g><g transform="translate(-134,-14) scale(1,1)"><path fill="#ffffff" stroke="none" d="M 1166.5507077414773 257.68 C 1166.5507077414773 252.886167936 1170.4365500664228 249 1175.22998046875 249 C 1180.0234108710772 249 1183.9092531960227 252.886167936 1183.9092531960227 257.68 C 1183.9092531960227 262.473832064 1180.0234108710772 266.36 1175.22998046875 266.36 C 1170.4365500664228 266.36 1166.5507077414773 262.473832064 1166.5507077414773 257.68 Z"/></g><g transform="translate(-134,-14) scale(1,1)"><path fill="none" stroke="#000000" d="M 1166.5507077414773 257.68 C 1166.5507077414773 252.886167936 1170.4365500664228 249 1175.22998046875 249 C 1180.0234108710772 249 1183.9092531960227 252.886167936 1183.9092531960227 257.68 C 1183.9092531960227 262.473832064 1180.0234108710772 266.36 1175.22998046875 266.36 C 1170.4365500664228 266.36 1166.5507077414773 262.473832064 1166.5507077414773 257.68 Z" stroke-miterlimit="10"/></g><g transform="translate(-134,-14) scale(1,1)"><path fill="none" stroke="#000000" d="M 1175.22998046875 266.36 L 1175.22998046875 283.64" stroke-miterlimit="10"/></g><g transform="translate(-134,-14) scale(1,1)"><path fill="none" stroke="#000000" d="M 1166.0401622869317 272.84 L 1184.4197986505683 272.84" stroke-miterlimit="10"/></g><g transform="translate(-134,-14) scale(1,1)"><path fill="none" stroke="#000000" d="M 1175.22998046875 283.64 L 1162.4663441051136 301" stroke-miterlimit="10"/></g><g transform="translate(-134,-14) scale(1,1)"><path fill="none" stroke="#000000" d="M 1175.22998046875 283.64 L 1187.9936168323864 301" stroke-miterlimit="10"/></g><g transform="translate(-134,-14) scale(1,1)"><g><path fill="none" stroke="none"/><text fill="#000000" stroke="none" font-family="Arial" font-size="13px" font-style="normal" font-weight="bold" text-decoration="none" x="1150.667724609375" y="321.5">Diretoria</text></g></g><g transform="translate(-134,-14) scale(1,1)"><path fill="none" stroke="#000000" d="M 1144 272 L 915 272" stroke-miterlimit="10"/></g><g transform="translate(-134,-14) scale(1,1)"><path fill="none" stroke="#000000" d="M 925.1626748576241 267.790482243984 L 915 272 L 925.1626748576241 276.209517756016" stroke-miterlimit="10"/></g></g></svg>