<svg version="1.1" xmlns="http://www.w3.org/2000/svg" xmlns:xlink="http://www.w3.org/1999/xlink" width="860.5126953125" height="392"><defs/><g><text fill="#eeeeee" stroke="none" font-family="Arial" font-size="24px" font-style="normal" font-weight="normal" text-decoration="none" x="0" y="0">UNREGISTERED</text><text fill="#eeeeee" stroke="none" font-family="Arial" font-size="24px" font-style="normal" font-weight="normal" text-decoration="none" x="0" y="30">UNREGISTERED</text><text fill="#eeeeee" stroke="none" font-family="Arial" font-size="24px" font-style="normal" font-weight="normal" text-decoration="none" x="0" y="60">UNREGISTERED</text><text fill="#eeeeee" stroke="none" font-family="Arial" font-size="24px" font-style="normal" font-weight="normal" text-decoration="none" x="0" y="90">UNREGISTERED</text><text fill="#eeeeee" stroke="none" font-family="Arial" font-size="24px" font-style="normal" font-weight="normal" text-decoration="none" x="0" y="120">UNREGISTERED</text><text fill="#eeeeee" stroke="none" font-family="Arial" font-size="24px" font-style="normal" font-weight="normal" text-decoration="none" x="0" y="150">UNREGISTERED</text><text fill="#eeeeee" stroke="none" font-family="Arial" font-size="24px" font-style="normal" font-weight="normal" text-decoration="none" x="0" y="180">UNREGISTERED</text><text fill="#eeeeee" stroke="none" font-family="Arial" font-size="24px" font-style="normal" font-weight="normal" text-decoration="none" x="0" y="210">UNREGISTERED</text><text fill="#eeeeee" stroke="none" font-family="Arial" font-size="24px" font-style="normal" font-weight="normal" text-decoration="none" x="0" y="240">UNREGISTERED</text><text fill="#eeeeee" stroke="none" font-family="Arial" font-size="24px" font-style="normal" font-weight="normal" text-decoration="none" x="0" y="270">UNREGISTERED</text><text fill="#eeeeee" stroke="none" font-family="Arial" font-size="24px" font-style="normal" font-weight="normal" text-decoration="none" x="0" y="300">UNREGISTERED</text><text fill="#eeeeee" stroke="none" font-family="Arial" font-size="24px" font-style="normal" font-weight="normal" text-decoration="none" x="0" y="330">UNREGISTERED</text><text fill="#eeeeee" stroke="none" font-family="Arial" font-size="24px" font-style="normal" font-weight="normal" text-decoration="none" x="0" y="360">UNREGISTERED</text><text fill="#eeeeee" stroke="none" font-family="Arial" font-size="24px" font-style="normal" font-weight="normal" text-decoration="none" x="0" y="390">UNREGISTERED</text><text fill="#eeeeee" stroke="none" font-family="Arial" font-size="24px" font-style="normal" font-weight="normal" text-decoration="none" x="200" y="0">UNREGISTERED</text><text fill="#eeeeee" stroke="none" font-family="Arial" font-size="24px" font-style="normal" font-weight="normal" text-decoration="none" x="200" y="30">UNREGISTERED</text><text fill="#eeeeee" stroke="none" font-family="Arial" font-size="24px" font-style="normal" font-weight="normal" text-decoration="none" x="200" y="60">UNREGISTERED</text><text fill="#eeeeee" stroke="none" font-family="Arial" font-size="24px" font-style="normal" font-weight="normal" text-decoration="none" x="200" y="90">UNREGISTERED</text><text fill="#eeeeee" stroke="none" font-family="Arial" font-size="24px" font-style="normal" font-weight="normal" text-decoration="none" x="200" y="120">UNREGISTERED</text><text fill="#eeeeee" stroke="none" font-family="Arial" font-size="24px" font-style="normal" font-weight="normal" text-decoration="none" x="200" y="150">UNREGISTERED</text><text fill="#eeeeee" stroke="none" font-family="Arial" font-size="24px" font-style="normal" font-weight="normal" text-decoration="none" x="200" y="180">UNREGISTERED</text><text fill="#eeeeee" stroke="none" font-family="Arial" font-size="24px" font-style="normal" font-weight="normal" text-decoration="none" x="200" y="210">UNREGISTERED</text><text fill="#eeeeee" stroke="none" font-family="Arial" font-size="24px" font-style="normal" font-weight="normal" text-decoration="none" x="200" y="240">UNREGISTERED</text><text fill="#eeeeee" stroke="none" font-family="Arial" font-size="24px" font-style="normal" font-weight="normal" text-decoration="none" x="200" y="270">UNREGISTERED</text><text fill="#eeeeee" stroke="none" font-family="Arial" font-size="24px" font-style="normal" font-weight="normal" text-decoration="none" x="200" y="300">UNREGISTERED</text><text fill="#eeeeee" stroke="none" font-family="Arial" font-size="24px" font-style="normal" font-weight="normal" text-decoration="none" x="200" y="330">UNREGISTERED</text><text fill="#eeeeee" stroke="none" font-family="Arial" font-size="24px" font-style="normal" font-weight="normal" text-decoration="none" x="200" y="360">UNREGISTERED</text><text fill="#eeeeee" stroke="none" font-family="Arial" font-size="24px" font-style="normal" font-weight="normal" text-decoration="none" x="200" y="390">UNREGISTERED</text><text fill="#eeeeee" stroke="none" font-family="Arial" font-size="24px" font-style="normal" font-weight="normal" text-decoration="none" x="400" y="0">UNREGISTERED</text><text fill="#eeeeee" stroke="none" font-family="Arial" font-size="24px" font-style="normal" font-weight="normal" text-decoration="none" x="400" y="30">UNREGISTERED</text><text fill="#eeeeee" stroke="none" font-family="Arial" font-size="24px" font-style="normal" font-weight="normal" text-decoration="none" x="400" y="60">UNREGISTERED</text><text fill="#eeeeee" stroke="none" font-family="Arial" font-size="24px" font-style="normal" font-weight="normal" text-decoration="none" x="400" y="90">UNREGISTERED</text><text fill="#eeeeee" stroke="none" font-family="Arial" font-size="24px" font-style="normal" font-weight="normal" text-decoration="none" x="400" y="120">UNREGISTERED</text><text fill="#eeeeee" stroke="none" font-family="Arial" font-size="24px" font-style="normal" font-weight="normal" text-decoration="none" x="400" y="150">UNREGISTERED</text><text fill="#eeeeee" stroke="none" font-family="Arial" font-size="24px" font-style="normal" font-weight="normal" text-decoration="none" x="400" y="180">UNREGISTERED</text><text fill="#eeeeee" stroke="none" font-family="Arial" font-size="24px" font-style="normal" font-weight="normal" text-decoration="none" x="400" y="210">UNREGISTERED</text><text fill="#eeeeee" stroke="none" font-family="Arial" font-size="24px" font-style="normal" font-weight="normal" text-decoration="none" x="400" y="240">UNREGISTERED</text><text fill="#eeeeee" stroke="none" font-family="Arial" font-size="24px" font-style="normal" font-weight="normal" text-decoration="none" x="400" y="270">UNREGISTERED</text><text fill="#eeeeee" stroke="none" font-family="Arial" font-size="24px" font-style="normal" font-weight="normal" text-decoration="none" x="400" y="300">UNREGISTERED</text><text fill="#eeeeee" stroke="none" font-family="Arial" font-size="24px" font-style="normal" font-weight="normal" text-decoration="none" x="400" y="330">UNREGISTERED</text><text fill="#eeeeee" stroke="none" font-family="Arial" font-size="24px" font-style="normal" font-weight="normal" text-decoration="none" x="400" y="360">UNREGISTERED</text><text fill="#eeeeee" stroke="none" font-family="Arial" font-size="24px" font-style="normal" font-weight="normal" text-decoration="none" x="400" y="390">UNREGISTERED</text><text fill="#eeeeee" stroke="none" font-family="Arial" font-size="24px" font-style="normal" font-weight="normal" text-decoration="none" x="600" y="0">UNREGISTERED</text><text fill="#eeeeee" stroke="none" font-family="Arial" font-size="24px" font-style="normal" font-weight="normal" text-decoration="none" x="600" y="30">UNREGISTERED</text><text fill="#eeeeee" stroke="none" font-family="Arial" font-size="24px" font-style="normal" font-weight="normal" text-decoration="none" x="600" y="60">UNREGISTERED</text><text fill="#eeeeee" stroke="none" font-family="Arial" font-size="24px" font-style="normal" font-weight="normal" text-decoration="none" x="600" y="90">UNREGISTERED</text><text fill="#eeeeee" stroke="none" font-family="Arial" font-size="24px" font-style="normal" font-weight="normal" text-decoration="none" x="600" y="120">UNREGISTERED</text><text fill="#eeeeee" stroke="none" font-family="Arial" font-size="24px" font-style="normal" font-weight="normal" text-decoration="none" x="600" y="150">UNREGISTERED</text><text fill="#eeeeee" stroke="none" font-family="Arial" font-size="24px" font-style="normal" font-weight="normal" text-decoration="none" x="600" y="180">UNREGISTERED</text><text fill="#eeeeee" stroke="none" font-family="Arial" font-size="24px" font-style="normal" font-weight="normal" text-decoration="none" x="600" y="210">UNREGISTERED</text><text fill="#eeeeee" stroke="none" font-family="Arial" font-size="24px" font-style="normal" font-weight="normal" text-decoration="none" x="600" y="240">UNREGISTERED</text><text fill="#eeeeee" stroke="none" font-family="Arial" font-size="24px" font-style="normal" font-weight="normal" text-decoration="none" x="600" y="270">UNREGISTERED</text><text fill="#eeeeee" stroke="none" font-family="Arial" font-size="24px" font-style="normal" font-weight="normal" text-decoration="none" x="600" y="300">UNREGISTERED</text><text fill="#eeeeee" stroke="none" font-family="Arial" font-size="24px" font-style="normal" font-weight="normal" text-decoration="none" x="600" y="330">UNREGISTERED</text><text fill="#eeeeee" stroke="none" font-family="Arial" font-size="24px" font-style="normal" font-weight="normal" text-decoration="none" x="600" y="360">UNREGISTERED</text><text fill="#eeeeee" stroke="none" font-family="Arial" font-size="24px" font-style="normal" font-weight="normal" text-decoration="none" x="600" y="390">UNREGISTERED</text><text fill="#eeeeee" stroke="none" font-family="Arial" font-size="24px" font-style="normal" font-weight="normal" text-decoration="none" x="800" y="0">UNREGISTERED</text><text fill="#eeeeee" stroke="none" font-family="Arial" font-size="24px" font-style="normal" font-weight="normal" text-decoration="none" x="800" y="30">UNREGISTERED</text><text fill="#eeeeee" stroke="none" font-family="Arial" font-size="24px" font-style="normal" font-weight="normal" text-decoration="none" x="800" y="60">UNREGISTERED</text><text fill="#eeeeee" stroke="none" font-family="Arial" font-size="24px" font-style="normal" font-weight="normal" text-decoration="none" x="800" y="90">UNREGISTERED</text><text fill="#eeeeee" stroke="none" font-family="Arial" font-size="24px" font-style="normal" font-weight="normal" text-decoration="none" x="800" y="120">UNREGISTERED</text><text fill="#eeeeee" stroke="none" font-family="Arial" font-size="24px" font-style="normal" font-weight="normal" text-decoration="none" x="800" y="150">UNREGISTERED</text><text fill="#eeeeee" stroke="none" font-family="Arial" font-size="24px" font-style="normal" font-weight="normal" text-decoration="none" x="800" y="180">UNREGISTERED</text><text fill="#eeeeee" stroke="none" font-family="Arial" font-size="24px" font-style="normal" font-weight="normal" text-decoration="none" x="800" y="210">UNREGISTERED</text><text fill="#eeeeee" stroke="none" font-family="Arial" font-size="24px" font-style="normal" font-weight="normal" text-decoration="none" x="800" y="240">UNREGISTERED</text><text fill="#eeeeee" stroke="none" font-family="Arial" font-size="24px" font-style="normal" font-weight="normal" text-decoration="none" x="800" y="270">UNREGISTERED</text><text fill="#eeeeee" stroke="none" font-family="Arial" font-size="24px" font-style="normal" font-weight="normal" text-decoration="none" x="800" y="300">UNREGISTERED</text><text fill="#eeeeee" stroke="none" font-family="Arial" font-size="24px" font-style="normal" font-weight="normal" text-decoration="none" x="800" y="330">UNREGISTERED</text><text fill="#eeeeee" stroke="none" font-family="Arial" font-size="24px" font-style="normal" font-weight="normal" text-decoration="none" x="800" y="360">UNREGISTERED</text><text fill="#eeeeee" stroke="none" font-family="Arial" font-size="24px" font-style="normal" font-weight="normal" text-decoration="none" x="800" y="390">UNREGISTERED</text><g transform="translate(-62,-10) scale(1,1)"><rect fill="#C0C0C0" stroke="none" x="167" y="31" width="204" height="327" opacity="0.2"/></g><g transform="translate(-62,-10) scale(1,1)"><rect fill="#ffffff" stroke="none" x="160" y="24" width="204" height="327"/></g><g transform="translate(-62,-10) scale(1,1)"><path fill="none" stroke="#000000" d="M 160 24 L 364 24 L 364 351 L 160 351 L 160 24 Z Z" stroke-miterlimit="10"/></g><g transform="translate(-62,-10) scale(1,1)"><g><path fill="none" stroke="none"/><text fill="#000000" stroke="none" font-family="Arial" font-size="13px" font-style="normal" font-weight="bold" text-decoration="none" x="170.939697265625" y="43.5">Módulo de Controle de Pedidos</text></g></g><g transform="translate(-62,-10) scale(1,1)"><rect fill="#C0C0C0" stroke="none" x="409" y="27" width="336" height="372" opacity="0.2"/></g><g transform="translate(-62,-10) scale(1,1)"><rect fill="#ffffff" stroke="none" x="402" y="20" width="336" height="372"/></g><g transform="translate(-62,-10) scale(1,1)"><path fill="none" stroke="#000000" d="M 402 20 L 738 20 L 738 392 L 402 392 L 402 20 Z Z" stroke-miterlimit="10"/></g><g transform="translate(-62,-10) scale(1,1)"><g><path fill="none" stroke="none"/><text fill="#000000" stroke="none" font-family="Arial" font-size="13px" font-style="normal" font-weight="bold" text-decoration="none" x="513.635986328125" y="39.5">Módulo Fornecedor</text></g></g><g transform="translate(-62,-10) scale(1,1)"><path fill="#ffffff" stroke="none" d="M 89.49162571022727 133.68 C 89.49162571022727 128.886167936 93.37746803517273 125 98.1708984375 125 C 102.96432883982727 125 106.85017116477273 128.886167936 106.85017116477273 133.68 C 106.85017116477273 138.47383206400002 102.96432883982727 142.36 98.1708984375 142.36 C 93.37746803517273 142.36 89.49162571022727 138.47383206400002 89.49162571022727 133.68 Z"/></g><g transform="translate(-62,-10) scale(1,1)"><path fill="none" stroke="#000000" d="M 89.49162571022727 133.68 C 89.49162571022727 128.886167936 93.37746803517273 125 98.1708984375 125 C 102.96432883982727 125 106.85017116477273 128.886167936 106.85017116477273 133.68 C 106.85017116477273 138.47383206400002 102.96432883982727 142.36 98.1708984375 142.36 C 93.37746803517273 142.36 89.49162571022727 138.47383206400002 89.49162571022727 133.68 Z" stroke-miterlimit="10"/></g><g transform="translate(-62,-10) scale(1,1)"><path fill="none" stroke="#000000" d="M 98.1708984375 142.36 L 98.1708984375 159.64" stroke-miterlimit="10"/></g><g transform="translate(-62,-10) scale(1,1)"><path fill="none" stroke="#000000" d="M 88.98108025568182 148.84 L 107.36071661931818 148.84" stroke-miterlimit="10"/></g><g transform="translate(-62,-10) scale(1,1)"><path fill="none" stroke="#000000" d="M 98.1708984375 159.64 L 85.40726207386363 177" stroke-miterlimit="10"/></g><g transform="translate(-62,-10) scale(1,1)"><path fill="none" stroke="#000000" d="M 98.1708984375 159.64 L 110.93453480113637 177" stroke-miterlimit="10"/></g><g transform="translate(-62,-10) scale(1,1)"><g><path fill="none" stroke="none"/><text fill="#000000" stroke="none" font-family="Arial" font-size="13px" font-style="normal" font-weight="bold" text-decoration="none" x="77.937744140625" y="197.5">Cliente</text></g></g><g transform="translate(-62,-10) scale(1,1)"><path fill="#C0C0C0" stroke="none" d="M 183 176 C 183 166.6111584 222.17508 159 270.5 159 C 318.82492 159 358 166.6111584 358 176 C 358 185.3888416 318.82492 193 270.5 193 C 222.17508 193 183 185.3888416 183 176 Z" opacity="0.2"/></g><g transform="translate(-62,-10) scale(1,1)"><path fill="#ffffff" stroke="none" d="M 176 169 C 176 159.6111584 215.17508 152 263.5 152 C 311.82492 152 351 159.6111584 351 169 C 351 178.3888416 311.82492 186 263.5 186 C 215.17508 186 176 178.3888416 176 169 Z"/></g><g transform="translate(-62,-10) scale(1,1)"><path fill="none" stroke="#000000" d="M 176 169 C 176 159.6111584 215.17508 152 263.5 152 C 311.82492 152 351 159.6111584 351 169 C 351 178.3888416 311.82492 186 263.5 186 C 215.17508 186 176 178.3888416 176 169 Z" stroke-miterlimit="10"/></g><g transform="translate(-62,-10) scale(1,1)"><g><path fill="none" stroke="none"/><text fill="#000000" stroke="none" font-family="Arial" font-size="13px" font-style="normal" font-weight="bold" text-decoration="none" x="209.66552734375" y="176">Gerenciar Pedidos</text></g></g><g transform="translate(-62,-10) scale(1,1)"><path fill="#C0C0C0" stroke="none" d="M 449 292 C 449 282.6111584 501.606536 275 566.5 275 C 631.393464 275 684 282.6111584 684 292 C 684 301.3888416 631.393464 309 566.5 309 C 501.606536 309 449 301.3888416 449 292 Z" opacity="0.2"/></g><g transform="translate(-62,-10) scale(1,1)"><path fill="#ffffff" stroke="none" d="M 442 285 C 442 275.6111584 494.606536 268 559.5 268 C 624.393464 268 677 275.6111584 677 285 C 677 294.3888416 624.393464 302 559.5 302 C 494.606536 302 442 294.3888416 442 285 Z"/></g><g transform="translate(-62,-10) scale(1,1)"><path fill="none" stroke="#000000" d="M 442 285 C 442 275.6111584 494.606536 268 559.5 268 C 624.393464 268 677 275.6111584 677 285 C 677 294.3888416 624.393464 302 559.5 302 C 494.606536 302 442 294.3888416 442 285 Z" stroke-miterlimit="10"/></g><g transform="translate(-62,-10) scale(1,1)"><g><path fill="none" stroke="none"/><text fill="#000000" stroke="none" font-family="Arial" font-size="13px" font-style="normal" font-weight="bold" text-decoration="none" x="485.791015625" y="292">Pesquisar Status Entrega</text></g></g><g transform="translate(-62,-10) scale(1,1)"><path fill="#C0C0C0" stroke="none" d="M 473 364 C 473 354.6111584 509.936504 347 555.5 347 C 601.063496 347 638 354.6111584 638 364 C 638 373.3888416 601.063496 381 555.5 381 C 509.936504 381 473 373.3888416 473 364 Z" opacity="0.2"/></g><g transform="translate(-62,-10) scale(1,1)"><path fill="#ffffff" stroke="none" d="M 466 357 C 466 347.6111584 502.936504 340 548.5 340 C 594.063496 340 631 347.6111584 631 357 C 631 366.3888416 594.063496 374 548.5 374 C 502.936504 374 466 366.3888416 466 357 Z"/></g><g transform="translate(-62,-10) scale(1,1)"><path fill="none" stroke="#000000" d="M 466 357 C 466 347.6111584 502.936504 340 548.5 340 C 594.063496 340 631 347.6111584 631 357 C 631 366.3888416 594.063496 374 548.5 374 C 502.936504 374 466 366.3888416 466 357 Z" stroke-miterlimit="10"/></g><g transform="translate(-62,-10) scale(1,1)"><g><path fill="none" stroke="none"/><text fill="#000000" stroke="none" font-family="Arial" font-size="13px" font-style="normal" font-weight="bold" text-decoration="none" x="497.91552734375" y="364">Cancelar Entrega</text></g></g><g transform="translate(-62,-10) scale(1,1)"><path fill="#C0C0C0" stroke="none" d="M 417 92 C 417 82.6111584 488.1867168 75 576 75 C 663.8132832 75 735 82.6111584 735 92 C 735 101.3888416 663.8132832 109 576 109 C 488.1867168 109 417 101.3888416 417 92 Z" opacity="0.2"/></g><g transform="translate(-62,-10) scale(1,1)"><path fill="#ffffff" stroke="none" d="M 410 85 C 410 75.6111584 481.1867168 68 569 68 C 656.8132832 68 728 75.6111584 728 85 C 728 94.3888416 656.8132832 102 569 102 C 481.1867168 102 410 94.3888416 410 85 Z"/></g><g transform="translate(-62,-10) scale(1,1)"><path fill="none" stroke="#000000" d="M 410 85 C 410 75.6111584 481.1867168 68 569 68 C 656.8132832 68 728 75.6111584 728 85 C 728 94.3888416 656.8132832 102 569 102 C 481.1867168 102 410 94.3888416 410 85 Z" stroke-miterlimit="10"/></g><g transform="translate(-62,-10) scale(1,1)"><g><path fill="none" stroke="none"/><text fill="#000000" stroke="none" font-family="Arial" font-size="13px" font-style="normal" font-weight="bold" text-decoration="none" x="469.6337890625" y="92">Pesquisar Disponibilidade Produto</text></g></g><g transform="translate(-62,-10) scale(1,1)"><path fill="#C0C0C0" stroke="none" d="M 489 156 C 489 146.6111584 526.3842192 139 572.5 139 C 618.6157808 139 656 146.6111584 656 156 C 656 165.3888416 618.6157808 173 572.5 173 C 526.3842192 173 489 165.3888416 489 156 Z" opacity="0.2"/></g><g transform="translate(-62,-10) scale(1,1)"><path fill="#ffffff" stroke="none" d="M 482 149 C 482 139.6111584 519.3842192 132 565.5 132 C 611.6157808 132 649 139.6111584 649 149 C 649 158.3888416 611.6157808 166 565.5 166 C 519.3842192 166 482 158.3888416 482 149 Z"/></g><g transform="translate(-62,-10) scale(1,1)"><path fill="none" stroke="#000000" d="M 482 149 C 482 139.6111584 519.3842192 132 565.5 132 C 611.6157808 132 649 139.6111584 649 149 C 649 158.3888416 611.6157808 166 565.5 166 C 519.3842192 166 482 158.3888416 482 149 Z" stroke-miterlimit="10"/></g><g transform="translate(-62,-10) scale(1,1)"><g><path fill="none" stroke="none"/><text fill="#000000" stroke="none" font-family="Arial" font-size="13px" font-style="normal" font-weight="bold" text-decoration="none" x="514.56005859375" y="156">Reservar Produto</text></g></g><g transform="translate(-62,-10) scale(1,1)"><path fill="#C0C0C0" stroke="none" d="M 497 212 C 497 202.6111584 529.2354944 195 569 195 C 608.7645056 195 641 202.6111584 641 212 C 641 221.3888416 608.7645056 229 569 229 C 529.2354944 229 497 221.3888416 497 212 Z" opacity="0.2"/></g><g transform="translate(-62,-10) scale(1,1)"><path fill="#ffffff" stroke="none" d="M 490 205 C 490 195.6111584 522.2354944 188 562 188 C 601.7645056 188 634 195.6111584 634 205 C 634 214.3888416 601.7645056 222 562 222 C 522.2354944 222 490 214.3888416 490 205 Z"/></g><g transform="translate(-62,-10) scale(1,1)"><path fill="none" stroke="#000000" d="M 490 205 C 490 195.6111584 522.2354944 188 562 188 C 601.7645056 188 634 195.6111584 634 205 C 634 214.3888416 601.7645056 222 562 222 C 522.2354944 222 490 214.3888416 490 205 Z" stroke-miterlimit="10"/></g><g transform="translate(-62,-10) scale(1,1)"><g><path fill="none" stroke="none"/><text fill="#000000" stroke="none" font-family="Arial" font-size="13px" font-style="normal" font-weight="bold" text-decoration="none" x="519.004150390625" y="212">Enviar Produto</text></g></g><g transform="translate(-62,-10) scale(1,1)"><path fill="none" stroke="#000000" d="M 351 168 L 360 168 L 360 280 L 442 280" stroke-miterlimit="10" stroke-dasharray="3"/></g><g transform="translate(-62,-10) scale(1,1)"><path fill="none" stroke="#000000" d="M 431.83732514237585 284.209517756016 L 442 280 L 431.83732514237585 275.790482243984" stroke-miterlimit="10"/></g><g transform="translate(-62,-10) scale(1,1)"><g><path fill="none" stroke="none"/><text fill="#000000" stroke="none" font-family="Arial" font-size="13px" font-style="normal" font-weight="normal" text-decoration="none" x="361.5" y="229.5">«include»</text></g></g><g transform="translate(-62,-10) scale(1,1)"><path fill="none" stroke="#000000" d="M 263 186 L 263 224 L 264 224 L 264 357 L 466 357" stroke-miterlimit="10" stroke-dasharray="3"/></g><g transform="translate(-62,-10) scale(1,1)"><path fill="none" stroke="#000000" d="M 455.83732514237585 361.209517756016 L 466 357 L 455.83732514237585 352.790482243984" stroke-miterlimit="10"/></g><g transform="translate(-62,-10) scale(1,1)"><g><path fill="none" stroke="none"/><text fill="#000000" stroke="none" font-family="Arial" font-size="13px" font-style="normal" font-weight="normal" text-decoration="none" x="266.5" y="229.5">«include»</text></g></g><g transform="translate(-62,-10) scale(1,1)"><path fill="#ffffff" stroke="none" d="M 863.5770749289773 146.68 C 863.5770749289773 141.886167936 867.4629172539227 138 872.25634765625 138 C 877.0497780585773 138 880.9356203835227 141.886167936 880.9356203835227 146.68 C 880.9356203835227 151.47383206400002 877.0497780585773 155.36 872.25634765625 155.36 C 867.4629172539227 155.36 863.5770749289773 151.47383206400002 863.5770749289773 146.68 Z"/></g><g transform="translate(-62,-10) scale(1,1)"><path fill="none" stroke="#000000" d="M 863.5770749289773 146.68 C 863.5770749289773 141.886167936 867.4629172539227 138 872.25634765625 138 C 877.0497780585773 138 880.9356203835227 141.886167936 880.9356203835227 146.68 C 880.9356203835227 151.47383206400002 877.0497780585773 155.36 872.25634765625 155.36 C 867.4629172539227 155.36 863.5770749289773 151.47383206400002 863.5770749289773 146.68 Z" stroke-miterlimit="10"/></g><g transform="translate(-62,-10) scale(1,1)"><path fill="none" stroke="#000000" d="M 872.25634765625 155.36 L 872.25634765625 172.64" stroke-miterlimit="10"/></g><g transform="translate(-62,-10) scale(1,1)"><path fill="none" stroke="#000000" d="M 863.0665294744318 161.84 L 881.4461658380682 161.84" stroke-miterlimit="10"/></g><g transform="translate(-62,-10) scale(1,1)"><path fill="none" stroke="#000000" d="M 872.25634765625 172.64 L 859.4927112926136 190" stroke-miterlimit="10"/></g><g transform="translate(-62,-10) scale(1,1)"><path fill="none" stroke="#000000" d="M 872.25634765625 172.64 L 885.0199840198864 190" stroke-miterlimit="10"/></g><g transform="translate(-62,-10) scale(1,1)"><g><path fill="none" stroke="none"/><text fill="#000000" stroke="none" font-family="Arial" font-size="13px" font-style="normal" font-weight="bold" text-decoration="none" x="839.016845703125" y="210.5">Fornecedor</text></g></g><g transform="translate(-62,-10) scale(1,1)"><path fill="none" stroke="#000000" d="M 831 164 L 629 103" stroke-miterlimit="10"/></g><g transform="translate(-62,-10) scale(1,1)"><path fill="none" stroke="#000000" d="M 831 164 L 629 103" stroke-miterlimit="10"/></g><g transform="translate(-62,-10) scale(1,1)"><path fill="none" stroke="#000000" d="M 639.945673726187 101.90810866847514 L 629 103 L 637.5118438812823 109.96767635160224" stroke-miterlimit="10"/></g><g transform="translate(-62,-10) scale(1,1)"><path fill="none" stroke="#000000" d="M 831 172 L 650 156" stroke-miterlimit="10"/></g><g transform="translate(-62,-10) scale(1,1)"><path fill="none" stroke="#000000" d="M 660.493866285283 152.7017018954315 L 650 156 L 659.7525329673036 161.0880350550734" stroke-miterlimit="10"/></g><g transform="translate(-62,-10) scale(1,1)"><path fill="none" stroke="#000000" d="M 831 180 L 635 198" stroke-miterlimit="10"/></g><g transform="translate(-62,-10) scale(1,1)"><path fill="none" stroke="#000000" d="M 644.7351197580344 192.87872639895826 L 635 198 L 645.5050564881776 201.26248190496105" stroke-miterlimit="10"/></g><g transform="translate(-62,-10) scale(1,1)"><path fill="none" stroke="#000000" d="M 831 190 L 611 267" stroke-miterlimit="10"/></g><g transform="translate(-62,-10) scale(1,1)"><path fill="none" stroke="#000000" d="M 619.201509608799 259.6695675341234 L 611 267 L 621.9827415659997 267.615944554697" stroke-miterlimit="10"/></g><g transform="translate(-62,-10) scale(1,1)"><path fill="none" stroke="#000000" d="M 831 199 L 580 339" stroke-miterlimit="10"/></g><g transform="translate(-62,-10) scale(1,1)"><path fill="none" stroke="#000000" d="M 586.8248862455387 330.3732434985414 L 580 339 L 590.9259613668736 337.72588532322067" stroke-miterlimit="10"/></g><g transform="translate(-62,-10) scale(1,1)"><path fill="none" stroke="#000000" d="M 124 168 L 176 168" stroke-miterlimit="10"/></g><g transform="translate(-62,-10) scale(1,1)"><path fill="none" stroke="#000000" d="M 165.83732514237585 172.209517756016 L 176 168 L 165.83732514237585 163.790482243984" stroke-miterlimit="10"/></g></g></svg>