<svg version="1.1" xmlns="http://www.w3.org/2000/svg" xmlns:xlink="http://www.w3.org/1999/xlink" width="655.7236328125" height="443"><defs/><g><text fill="#eeeeee" stroke="none" font-family="Arial" font-size="24px" font-style="normal" font-weight="normal" text-decoration="none" x="0" y="0">UNREGISTERED</text><text fill="#eeeeee" stroke="none" font-family="Arial" font-size="24px" font-style="normal" font-weight="normal" text-decoration="none" x="0" y="30">UNREGISTERED</text><text fill="#eeeeee" stroke="none" font-family="Arial" font-size="24px" font-style="normal" font-weight="normal" text-decoration="none" x="0" y="60">UNREGISTERED</text><text fill="#eeeeee" stroke="none" font-family="Arial" font-size="24px" font-style="normal" font-weight="normal" text-decoration="none" x="0" y="90">UNREGISTERED</text><text fill="#eeeeee" stroke="none" font-family="Arial" font-size="24px" font-style="normal" font-weight="normal" text-decoration="none" x="0" y="120">UNREGISTERED</text><text fill="#eeeeee" stroke="none" font-family="Arial" font-size="24px" font-style="normal" font-weight="normal" text-decoration="none" x="0" y="150">UNREGISTERED</text><text fill="#eeeeee" stroke="none" font-family="Arial" font-size="24px" font-style="normal" font-weight="normal" text-decoration="none" x="0" y="180">UNREGISTERED</text><text fill="#eeeeee" stroke="none" font-family="Arial" font-size="24px" font-style="normal" font-weight="normal" text-decoration="none" x="0" y="210">UNREGISTERED</text><text fill="#eeeeee" stroke="none" font-family="Arial" font-size="24px" font-style="normal" font-weight="normal" text-decoration="none" x="0" y="240">UNREGISTERED</text><text fill="#eeeeee" stroke="none" font-family="Arial" font-size="24px" font-style="normal" font-weight="normal" text-decoration="none" x="0" y="270">UNREGISTERED</text><text fill="#eeeeee" stroke="none" font-family="Arial" font-size="24px" font-style="normal" font-weight="normal" text-decoration="none" x="0" y="300">UNREGISTERED</text><text fill="#eeeeee" stroke="none" font-family="Arial" font-size="24px" font-style="normal" font-weight="normal" text-decoration="none" x="0" y="330">UNREGISTERED</text><text fill="#eeeeee" stroke="none" font-family="Arial" font-size="24px" font-style="normal" font-weight="normal" text-decoration="none" x="0" y="360">UNREGISTERED</text><text fill="#eeeeee" stroke="none" font-family="Arial" font-size="24px" font-style="normal" font-weight="normal" text-decoration="none" x="0" y="390">UNREGISTERED</text><text fill="#eeeeee" stroke="none" font-family="Arial" font-size="24px" font-style="normal" font-weight="normal" text-decoration="none" x="0" y="420">UNREGISTERED</text><text fill="#eeeeee" stroke="none" font-family="Arial" font-size="24px" font-style="normal" font-weight="normal" text-decoration="none" x="200" y="0">UNREGISTERED</text><text fill="#eeeeee" stroke="none" font-family="Arial" font-size="24px" font-style="normal" font-weight="normal" text-decoration="none" x="200" y="30">UNREGISTERED</text><text fill="#eeeeee" stroke="none" font-family="Arial" font-size="24px" font-style="normal" font-weight="normal" text-decoration="none" x="200" y="60">UNREGISTERED</text><text fill="#eeeeee" stroke="none" font-family="Arial" font-size="24px" font-style="normal" font-weight="normal" text-decoration="none" x="200" y="90">UNREGISTERED</text><text fill="#eeeeee" stroke="none" font-family="Arial" font-size="24px" font-style="normal" font-weight="normal" text-decoration="none" x="200" y="120">UNREGISTERED</text><text fill="#eeeeee" stroke="none" font-family="Arial" font-size="24px" font-style="normal" font-weight="normal" text-decoration="none" x="200" y="150">UNREGISTERED</text><text fill="#eeeeee" stroke="none" font-family="Arial" font-size="24px" font-style="normal" font-weight="normal" text-decoration="none" x="200" y="180">UNREGISTERED</text><text fill="#eeeeee" stroke="none" font-family="Arial" font-size="24px" font-style="normal" font-weight="normal" text-decoration="none" x="200" y="210">UNREGISTERED</text><text fill="#eeeeee" stroke="none" font-family="Arial" font-size="24px" font-style="normal" font-weight="normal" text-decoration="none" x="200" y="240">UNREGISTERED</text><text fill="#eeeeee" stroke="none" font-family="Arial" font-size="24px" font-style="normal" font-weight="normal" text-decoration="none" x="200" y="270">UNREGISTERED</text><text fill="#eeeeee" stroke="none" font-family="Arial" font-size="24px" font-style="normal" font-weight="normal" text-decoration="none" x="200" y="300">UNREGISTERED</text><text fill="#eeeeee" stroke="none" font-family="Arial" font-size="24px" font-style="normal" font-weight="normal" text-decoration="none" x="200" y="330">UNREGISTERED</text><text fill="#eeeeee" stroke="none" font-family="Arial" font-size="24px" font-style="normal" font-weight="normal" text-decoration="none" x="200" y="360">UNREGISTERED</text><text fill="#eeeeee" stroke="none" font-family="Arial" font-size="24px" font-style="normal" font-weight="normal" text-decoration="none" x="200" y="390">UNREGISTERED</text><text fill="#eeeeee" stroke="none" font-family="Arial" font-size="24px" font-style="normal" font-weight="normal" text-decoration="none" x="200" y="420">UNREGISTERED</text><text fill="#eeeeee" stroke="none" font-family="Arial" font-size="24px" font-style="normal" font-weight="normal" text-decoration="none" x="400" y="0">UNREGISTERED</text><text fill="#eeeeee" stroke="none" font-family="Arial" font-size="24px" font-style="normal" font-weight="normal" text-decoration="none" x="400" y="30">UNREGISTERED</text><text fill="#eeeeee" stroke="none" font-family="Arial" font-size="24px" font-style="normal" font-weight="normal" text-decoration="none" x="400" y="60">UNREGISTERED</text><text fill="#eeeeee" stroke="none" font-family="Arial" font-size="24px" font-style="normal" font-weight="normal" text-decoration="none" x="400" y="90">UNREGISTERED</text><text fill="#eeeeee" stroke="none" font-family="Arial" font-size="24px" font-style="normal" font-weight="normal" text-decoration="none" x="400" y="120">UNREGISTERED</text><text fill="#eeeeee" stroke="none" font-family="Arial" font-size="24px" font-style="normal" font-weight="normal" text-decoration="none" x="400" y="150">UNREGISTERED</text><text fill="#eeeeee" stroke="none" font-family="Arial" font-size="24px" font-style="normal" font-weight="normal" text-decoration="none" x="400" y="180">UNREGISTERED</text><text fill="#eeeeee" stroke="none" font-family="Arial" font-size="24px" font-style="normal" font-weight="normal" text-decoration="none" x="400" y="210">UNREGISTERED</text><text fill="#eeeeee" stroke="none" font-family="Arial" font-size="24px" font-style="normal" font-weight="normal" text-decoration="none" x="400" y="240">UNREGISTERED</text><text fill="#eeeeee" stroke="none" font-family="Arial" font-size="24px" font-style="normal" font-weight="normal" text-decoration="none" x="400" y="270">UNREGISTERED</text><text fill="#eeeeee" stroke="none" font-family="Arial" font-size="24px" font-style="normal" font-weight="normal" text-decoration="none" x="400" y="300">UNREGISTERED</text><text fill="#eeeeee" stroke="none" font-family="Arial" font-size="24px" font-style="normal" font-weight="normal" text-decoration="none" x="400" y="330">UNREGISTERED</text><text fill="#eeeeee" stroke="none" font-family="Arial" font-size="24px" font-style="normal" font-weight="normal" text-decoration="none" x="400" y="360">UNREGISTERED</text><text fill="#eeeeee" stroke="none" font-family="Arial" font-size="24px" font-style="normal" font-weight="normal" text-decoration="none" x="400" y="390">UNREGISTERED</text><text fill="#eeeeee" stroke="none" font-family="Arial" font-size="24px" font-style="normal" font-weight="normal" text-decoration="none" x="400" y="420">UNREGISTERED</text><text fill="#eeeeee" stroke="none" font-family="Arial" font-size="24px" font-style="normal" font-weight="normal" text-decoration="none" x="600" y="0">UNREGISTERED</text><text fill="#eeeeee" stroke="none" font-family="Arial" font-size="24px" font-style="normal" font-weight="normal" text-decoration="none" x="600" y="30">UNREGISTERED</text><text fill="#eeeeee" stroke="none" font-family="Arial" font-size="24px" font-style="normal" font-weight="normal" text-decoration="none" x="600" y="60">UNREGISTERED</text><text fill="#eeeeee" stroke="none" font-family="Arial" font-size="24px" font-style="normal" font-weight="normal" text-decoration="none" x="600" y="90">UNREGISTERED</text><text fill="#eeeeee" stroke="none" font-family="Arial" font-size="24px" font-style="normal" font-weight="normal" text-decoration="none" x="600" y="120">UNREGISTERED</text><text fill="#eeeeee" stroke="none" font-family="Arial" font-size="24px" font-style="normal" font-weight="normal" text-decoration="none" x="600" y="150">UNREGISTERED</text><text fill="#eeeeee" stroke="none" font-family="Arial" font-size="24px" font-style="normal" font-weight="normal" text-decoration="none" x="600" y="180">UNREGISTERED</text><text fill="#eeeeee" stroke="none" font-family="Arial" font-size="24px" font-style="normal" font-weight="normal" text-decoration="none" x="600" y="210">UNREGISTERED</text><text fill="#eeeeee" stroke="none" font-family="Arial" font-size="24px" font-style="normal" font-weight="normal" text-decoration="none" x="600" y="240">UNREGISTERED</text><text fill="#eeeeee" stroke="none" font-family="Arial" font-size="24px" font-style="normal" font-weight="normal" text-decoration="none" x="600" y="270">UNREGISTERED</text><text fill="#eeeeee" stroke="none" font-family="Arial" font-size="24px" font-style="normal" font-weight="normal" text-decoration="none" x="600" y="300">UNREGISTERED</text><text fill="#eeeeee" stroke="none" font-family="Arial" font-size="24px" font-style="normal" font-weight="normal" text-decoration="none" x="600" y="330">UNREGISTERED</text><text fill="#eeeeee" stroke="none" font-family="Arial" font-size="24px" font-style="normal" font-weight="normal" text-decoration="none" x="600" y="360">UNREGISTERED</text><text fill="#eeeeee" stroke="none" font-family="Arial" font-size="24px" font-style="normal" font-weight="normal" text-decoration="none" x="600" y="390">UNREGISTERED</text><text fill="#eeeeee" stroke="none" font-family="Arial" font-size="24px" font-style="normal" font-weight="normal" text-decoration="none" x="600" y="420">UNREGISTERED</text><g transform="translate(-350,-46) scale(1,1)"><rect fill="#C0C0C0" stroke="none" x="503" y="63" width="343" height="423" opacity="0.2"/></g><g transform="translate(-350,-46) scale(1,1)"><rect fill="#ffffff" stroke="none" x="496" y="56" width="343" height="423"/></g><g transform="translate(-350,-46) scale(1,1)"><path fill="none" stroke="#000000" d="M 496 56 L 839 56 L 839 479 L 496 479 L 496 56 Z Z" stroke-miterlimit="10"/></g><g transform="translate(-350,-46) scale(1,1)"><g><path fill="none" stroke="none"/><text fill="#000000" stroke="none" font-family="Arial" font-size="13px" font-style="normal" font-weight="bold" text-decoration="none" x="556.568359375" y="75.5">Módulo de Propagandas e Promoções</text></g></g><g transform="translate(-350,-46) scale(1,1)"><path fill="#ffffff" stroke="none" d="M 391.57707492897725 193.68 C 391.57707492897725 188.886167936 395.46291725392274 185 400.25634765625 185 C 405.04977805857726 185 408.93562038352275 188.886167936 408.93562038352275 193.68 C 408.93562038352275 198.47383206400002 405.04977805857726 202.36 400.25634765625 202.36 C 395.46291725392274 202.36 391.57707492897725 198.47383206400002 391.57707492897725 193.68 Z"/></g><g transform="translate(-350,-46) scale(1,1)"><path fill="none" stroke="#000000" d="M 391.57707492897725 193.68 C 391.57707492897725 188.886167936 395.46291725392274 185 400.25634765625 185 C 405.04977805857726 185 408.93562038352275 188.886167936 408.93562038352275 193.68 C 408.93562038352275 198.47383206400002 405.04977805857726 202.36 400.25634765625 202.36 C 395.46291725392274 202.36 391.57707492897725 198.47383206400002 391.57707492897725 193.68 Z" stroke-miterlimit="10"/></g><g transform="translate(-350,-46) scale(1,1)"><path fill="none" stroke="#000000" d="M 400.25634765625 202.36 L 400.25634765625 219.64" stroke-miterlimit="10"/></g><g transform="translate(-350,-46) scale(1,1)"><path fill="none" stroke="#000000" d="M 391.06652947443183 208.84 L 409.44616583806817 208.84" stroke-miterlimit="10"/></g><g transform="translate(-350,-46) scale(1,1)"><path fill="none" stroke="#000000" d="M 400.25634765625 219.64 L 387.49271129261365 237" stroke-miterlimit="10"/></g><g transform="translate(-350,-46) scale(1,1)"><path fill="none" stroke="#000000" d="M 400.25634765625 219.64 L 413.01998401988635 237" stroke-miterlimit="10"/></g><g transform="translate(-350,-46) scale(1,1)"><g><path fill="none" stroke="none"/><text fill="#000000" stroke="none" font-family="Arial" font-size="13px" font-style="normal" font-weight="bold" text-decoration="none" x="367.016845703125" y="257.5">Fornecedor</text></g></g><g transform="translate(-350,-46) scale(1,1)"><path fill="#C0C0C0" stroke="none" d="M 567 195 C 567 170.6994688 616.2486719999999 151 677 151 C 737.7513280000001 151 787 170.6994688 787 195 C 787 219.3005312 737.7513280000001 239 677 239 C 616.2486719999999 239 567 219.3005312 567 195 Z" opacity="0.2"/></g><g transform="translate(-350,-46) scale(1,1)"><path fill="#ffffff" stroke="none" d="M 560 188 C 560 163.6994688 609.2486719999999 144 670 144 C 730.7513280000001 144 780 163.6994688 780 188 C 780 212.3005312 730.7513280000001 232 670 232 C 609.2486719999999 232 560 212.3005312 560 188 Z"/></g><g transform="translate(-350,-46) scale(1,1)"><path fill="none" stroke="#000000" d="M 560 188 C 560 163.6994688 609.2486719999999 144 670 144 C 730.7513280000001 144 780 163.6994688 780 188 C 780 212.3005312 730.7513280000001 232 670 232 C 609.2486719999999 232 560 212.3005312 560 188 Z" stroke-miterlimit="10"/></g><g transform="translate(-350,-46) scale(1,1)"><g><path fill="none" stroke="none"/><text fill="#000000" stroke="none" font-family="Arial" font-size="13px" font-style="normal" font-weight="bold" text-decoration="none" x="600.985107421875" y="195">Gerenciar Propagandas</text></g></g><g transform="translate(-350,-46) scale(1,1)"><path fill="#C0C0C0" stroke="none" d="M 567 359 C 567 332.4903296 612.6669504 311 669 311 C 725.3330496 311 771 332.4903296 771 359 C 771 385.5096704 725.3330496 407 669 407 C 612.6669504 407 567 385.5096704 567 359 Z" opacity="0.2"/></g><g transform="translate(-350,-46) scale(1,1)"><path fill="#ffffff" stroke="none" d="M 560 352 C 560 325.4903296 605.6669504 304 662 304 C 718.3330496 304 764 325.4903296 764 352 C 764 378.5096704 718.3330496 400 662 400 C 605.6669504 400 560 378.5096704 560 352 Z"/></g><g transform="translate(-350,-46) scale(1,1)"><path fill="none" stroke="#000000" d="M 560 352 C 560 325.4903296 605.6669504 304 662 304 C 718.3330496 304 764 325.4903296 764 352 C 764 378.5096704 718.3330496 400 662 400 C 605.6669504 400 560 378.5096704 560 352 Z" stroke-miterlimit="10"/></g><g transform="translate(-350,-46) scale(1,1)"><g><path fill="none" stroke="none"/><text fill="#000000" stroke="none" font-family="Arial" font-size="13px" font-style="normal" font-weight="bold" text-decoration="none" x="598.780517578125" y="359">Gerenciar Promoções</text></g></g><g transform="translate(-350,-46) scale(1,1)"><path fill="none" stroke="#000000" d="M 441 192 L 560 192" stroke-miterlimit="10"/></g><g transform="translate(-350,-46) scale(1,1)"><path fill="none" stroke="#000000" d="M 549.8373251423759 196.209517756016 L 560 192 L 549.8373251423758 187.790482243984" stroke-miterlimit="10"/></g><g transform="translate(-350,-46) scale(1,1)"><path fill="none" stroke="#000000" d="M 400 263 L 400 280 L 470 280 L 470 352 L 560 352" stroke-miterlimit="10"/></g><g transform="translate(-350,-46) scale(1,1)"><path fill="none" stroke="#000000" d="M 549.8373251423759 356.209517756016 L 560 352 L 549.8373251423758 347.790482243984" stroke-miterlimit="10"/></g><g transform="translate(-350,-46) scale(1,1)"><path fill="#ffffff" stroke="none" d="M 969.1825436789773 185.68 C 969.1825436789773 180.886167936 973.0683860039227 177 977.86181640625 177 C 982.6552468085773 177 986.5410891335227 180.886167936 986.5410891335227 185.68 C 986.5410891335227 190.47383206400002 982.6552468085773 194.36 977.86181640625 194.36 C 973.0683860039227 194.36 969.1825436789773 190.47383206400002 969.1825436789773 185.68 Z"/></g><g transform="translate(-350,-46) scale(1,1)"><path fill="none" stroke="#000000" d="M 969.1825436789773 185.68 C 969.1825436789773 180.886167936 973.0683860039227 177 977.86181640625 177 C 982.6552468085773 177 986.5410891335227 180.886167936 986.5410891335227 185.68 C 986.5410891335227 190.47383206400002 982.6552468085773 194.36 977.86181640625 194.36 C 973.0683860039227 194.36 969.1825436789773 190.47383206400002 969.1825436789773 185.68 Z" stroke-miterlimit="10"/></g><g transform="translate(-350,-46) scale(1,1)"><path fill="none" stroke="#000000" d="M 977.86181640625 194.36 L 977.86181640625 211.64" stroke-miterlimit="10"/></g><g transform="translate(-350,-46) scale(1,1)"><path fill="none" stroke="#000000" d="M 968.6719982244318 200.84 L 987.0516345880682 200.84" stroke-miterlimit="10"/></g><g transform="translate(-350,-46) scale(1,1)"><path fill="none" stroke="#000000" d="M 977.86181640625 211.64 L 965.0981800426136 229" stroke-miterlimit="10"/></g><g transform="translate(-350,-46) scale(1,1)"><path fill="none" stroke="#000000" d="M 977.86181640625 211.64 L 990.6254527698864 229" stroke-miterlimit="10"/></g><g transform="translate(-350,-46) scale(1,1)"><g><path fill="none" stroke="none"/><text fill="#000000" stroke="none" font-family="Arial" font-size="13px" font-style="normal" font-weight="bold" text-decoration="none" x="965.57275390625" y="249.5">Loja</text></g></g><g transform="translate(-350,-46) scale(1,1)"><path fill="none" stroke="#000000" d="M 960 224 L 944 224 L 944 184 L 780 184" stroke-miterlimit="10"/></g><g transform="translate(-350,-46) scale(1,1)"><path fill="none" stroke="#000000" d="M 790.1626748576241 179.790482243984 L 780 184 L 790.1626748576241 188.209517756016" stroke-miterlimit="10"/></g><g transform="translate(-350,-46) scale(1,1)"><path fill="none" stroke="#000000" d="M 960 248 L 904 248 L 904 352 L 764 352" stroke-miterlimit="10"/></g><g transform="translate(-350,-46) scale(1,1)"><path fill="none" stroke="#000000" d="M 774.1626748576241 347.790482243984 L 764 352 L 774.1626748576241 356.209517756016" stroke-miterlimit="10"/></g></g></svg>