<svg version="1.1" xmlns="http://www.w3.org/2000/svg" xmlns:xlink="http://www.w3.org/1999/xlink" width="544" height="404"><defs/><g><text fill="#eeeeee" stroke="none" font-family="Arial" font-size="24px" font-style="normal" font-weight="normal" text-decoration="none" x="0" y="0">UNREGISTERED</text><text fill="#eeeeee" stroke="none" font-family="Arial" font-size="24px" font-style="normal" font-weight="normal" text-decoration="none" x="0" y="30">UNREGISTERED</text><text fill="#eeeeee" stroke="none" font-family="Arial" font-size="24px" font-style="normal" font-weight="normal" text-decoration="none" x="0" y="60">UNREGISTERED</text><text fill="#eeeeee" stroke="none" font-family="Arial" font-size="24px" font-style="normal" font-weight="normal" text-decoration="none" x="0" y="90">UNREGISTERED</text><text fill="#eeeeee" stroke="none" font-family="Arial" font-size="24px" font-style="normal" font-weight="normal" text-decoration="none" x="0" y="120">UNREGISTERED</text><text fill="#eeeeee" stroke="none" font-family="Arial" font-size="24px" font-style="normal" font-weight="normal" text-decoration="none" x="0" y="150">UNREGISTERED</text><text fill="#eeeeee" stroke="none" font-family="Arial" font-size="24px" font-style="normal" font-weight="normal" text-decoration="none" x="0" y="180">UNREGISTERED</text><text fill="#eeeeee" stroke="none" font-family="Arial" font-size="24px" font-style="normal" font-weight="normal" text-decoration="none" x="0" y="210">UNREGISTERED</text><text fill="#eeeeee" stroke="none" font-family="Arial" font-size="24px" font-style="normal" font-weight="normal" text-decoration="none" x="0" y="240">UNREGISTERED</text><text fill="#eeeeee" stroke="none" font-family="Arial" font-size="24px" font-style="normal" font-weight="normal" text-decoration="none" x="0" y="270">UNREGISTERED</text><text fill="#eeeeee" stroke="none" font-family="Arial" font-size="24px" font-style="normal" font-weight="normal" text-decoration="none" x="0" y="300">UNREGISTERED</text><text fill="#eeeeee" stroke="none" font-family="Arial" font-size="24px" font-style="normal" font-weight="normal" text-decoration="none" x="0" y="330">UNREGISTERED</text><text fill="#eeeeee" stroke="none" font-family="Arial" font-size="24px" font-style="normal" font-weight="normal" text-decoration="none" x="0" y="360">UNREGISTERED</text><text fill="#eeeeee" stroke="none" font-family="Arial" font-size="24px" font-style="normal" font-weight="normal" text-decoration="none" x="0" y="390">UNREGISTERED</text><text fill="#eeeeee" stroke="none" font-family="Arial" font-size="24px" font-style="normal" font-weight="normal" text-decoration="none" x="200" y="0">UNREGISTERED</text><text fill="#eeeeee" stroke="none" font-family="Arial" font-size="24px" font-style="normal" font-weight="normal" text-decoration="none" x="200" y="30">UNREGISTERED</text><text fill="#eeeeee" stroke="none" font-family="Arial" font-size="24px" font-style="normal" font-weight="normal" text-decoration="none" x="200" y="60">UNREGISTERED</text><text fill="#eeeeee" stroke="none" font-family="Arial" font-size="24px" font-style="normal" font-weight="normal" text-decoration="none" x="200" y="90">UNREGISTERED</text><text fill="#eeeeee" stroke="none" font-family="Arial" font-size="24px" font-style="normal" font-weight="normal" text-decoration="none" x="200" y="120">UNREGISTERED</text><text fill="#eeeeee" stroke="none" font-family="Arial" font-size="24px" font-style="normal" font-weight="normal" text-decoration="none" x="200" y="150">UNREGISTERED</text><text fill="#eeeeee" stroke="none" font-family="Arial" font-size="24px" font-style="normal" font-weight="normal" text-decoration="none" x="200" y="180">UNREGISTERED</text><text fill="#eeeeee" stroke="none" font-family="Arial" font-size="24px" font-style="normal" font-weight="normal" text-decoration="none" x="200" y="210">UNREGISTERED</text><text fill="#eeeeee" stroke="none" font-family="Arial" font-size="24px" font-style="normal" font-weight="normal" text-decoration="none" x="200" y="240">UNREGISTERED</text><text fill="#eeeeee" stroke="none" font-family="Arial" font-size="24px" font-style="normal" font-weight="normal" text-decoration="none" x="200" y="270">UNREGISTERED</text><text fill="#eeeeee" stroke="none" font-family="Arial" font-size="24px" font-style="normal" font-weight="normal" text-decoration="none" x="200" y="300">UNREGISTERED</text><text fill="#eeeeee" stroke="none" font-family="Arial" font-size="24px" font-style="normal" font-weight="normal" text-decoration="none" x="200" y="330">UNREGISTERED</text><text fill="#eeeeee" stroke="none" font-family="Arial" font-size="24px" font-style="normal" font-weight="normal" text-decoration="none" x="200" y="360">UNREGISTERED</text><text fill="#eeeeee" stroke="none" font-family="Arial" font-size="24px" font-style="normal" font-weight="normal" text-decoration="none" x="200" y="390">UNREGISTERED</text><text fill="#eeeeee" stroke="none" font-family="Arial" font-size="24px" font-style="normal" font-weight="normal" text-decoration="none" x="400" y="0">UNREGISTERED</text><text fill="#eeeeee" stroke="none" font-family="Arial" font-size="24px" font-style="normal" font-weight="normal" text-decoration="none" x="400" y="30">UNREGISTERED</text><text fill="#eeeeee" stroke="none" font-family="Arial" font-size="24px" font-style="normal" font-weight="normal" text-decoration="none" x="400" y="60">UNREGISTERED</text><text fill="#eeeeee" stroke="none" font-family="Arial" font-size="24px" font-style="normal" font-weight="normal" text-decoration="none" x="400" y="90">UNREGISTERED</text><text fill="#eeeeee" stroke="none" font-family="Arial" font-size="24px" font-style="normal" font-weight="normal" text-decoration="none" x="400" y="120">UNREGISTERED</text><text fill="#eeeeee" stroke="none" font-family="Arial" font-size="24px" font-style="normal" font-weight="normal" text-decoration="none" x="400" y="150">UNREGISTERED</text><text fill="#eeeeee" stroke="none" font-family="Arial" font-size="24px" font-style="normal" font-weight="normal" text-decoration="none" x="400" y="180">UNREGISTERED</text><text fill="#eeeeee" stroke="none" font-family="Arial" font-size="24px" font-style="normal" font-weight="normal" text-decoration="none" x="400" y="210">UNREGISTERED</text><text fill="#eeeeee" stroke="none" font-family="Arial" font-size="24px" font-style="normal" font-weight="normal" text-decoration="none" x="400" y="240">UNREGISTERED</text><text fill="#eeeeee" stroke="none" font-family="Arial" font-size="24px" font-style="normal" font-weight="normal" text-decoration="none" x="400" y="270">UNREGISTERED</text><text fill="#eeeeee" stroke="none" font-family="Arial" font-size="24px" font-style="normal" font-weight="normal" text-decoration="none" x="400" y="300">UNREGISTERED</text><text fill="#eeeeee" stroke="none" font-family="Arial" font-size="24px" font-style="normal" font-weight="normal" text-decoration="none" x="400" y="330">UNREGISTERED</text><text fill="#eeeeee" stroke="none" font-family="Arial" font-size="24px" font-style="normal" font-weight="normal" text-decoration="none" x="400" y="360">UNREGISTERED</text><text fill="#eeeeee" stroke="none" font-family="Arial" font-size="24px" font-style="normal" font-weight="normal" text-decoration="none" x="400" y="390">UNREGISTERED</text><g transform="translate(-338,-118) scale(1,1)"><rect fill="#C0C0C0" stroke="none" x="527" y="135" width="352" height="384" opacity="0.2"/></g><g transform="translate(-338,-118) scale(1,1)"><rect fill="#ffffff" stroke="none" x="520" y="128" width="352" height="384"/></g><g transform="translate(-338,-118) scale(1,1)"><path fill="none" stroke="#000000" d="M 520 128 L 872 128 L 872 512 L 520 512 L 520 128 Z Z" stroke-miterlimit="10"/></g><g transform="translate(-338,-118) scale(1,1)"><g><path fill="none" stroke="none"/><text fill="#000000" stroke="none" font-family="Arial" font-size="13px" font-style="normal" font-weight="bold" text-decoration="none" x="588.334228515625" y="147.5">Módulo de Administração do Sistema</text></g></g><g transform="translate(-338,-118) scale(1,1)"><path fill="#ffffff" stroke="none" d="M 388.24162571022725 254.68 C 388.24162571022725 249.886167936 392.12746803517274 246 396.9208984375 246 C 401.71432883982726 246 405.60017116477275 249.886167936 405.60017116477275 254.68 C 405.60017116477275 259.473832064 401.71432883982726 263.36 396.9208984375 263.36 C 392.12746803517274 263.36 388.24162571022725 259.473832064 388.24162571022725 254.68 Z"/></g><g transform="translate(-338,-118) scale(1,1)"><path fill="none" stroke="#000000" d="M 388.24162571022725 254.68 C 388.24162571022725 249.886167936 392.12746803517274 246 396.9208984375 246 C 401.71432883982726 246 405.60017116477275 249.886167936 405.60017116477275 254.68 C 405.60017116477275 259.473832064 401.71432883982726 263.36 396.9208984375 263.36 C 392.12746803517274 263.36 388.24162571022725 259.473832064 388.24162571022725 254.68 Z" stroke-miterlimit="10"/></g><g transform="translate(-338,-118) scale(1,1)"><path fill="none" stroke="#000000" d="M 396.9208984375 263.36 L 396.9208984375 280.64" stroke-miterlimit="10"/></g><g transform="translate(-338,-118) scale(1,1)"><path fill="none" stroke="#000000" d="M 387.73108025568183 269.84 L 406.11071661931817 269.84" stroke-miterlimit="10"/></g><g transform="translate(-338,-118) scale(1,1)"><path fill="none" stroke="#000000" d="M 396.9208984375 280.64 L 384.15726207386365 298" stroke-miterlimit="10"/></g><g transform="translate(-338,-118) scale(1,1)"><path fill="none" stroke="#000000" d="M 396.9208984375 280.64 L 409.68453480113635 298" stroke-miterlimit="10"/></g><g transform="translate(-338,-118) scale(1,1)"><g><path fill="none" stroke="none"/><text fill="#000000" stroke="none" font-family="Arial" font-size="13px" font-style="normal" font-weight="bold" text-decoration="none" x="356.82275390625" y="318.5">Administrador</text></g></g><g transform="translate(-338,-118) scale(1,1)"><path fill="#C0C0C0" stroke="none" d="M 607 239 C 607 221.3268864 647.7420832 207 698 207 C 748.2579168 207 789 221.3268864 789 239 C 789 256.6731136 748.2579168 271 698 271 C 647.7420832 271 607 256.6731136 607 239 Z" opacity="0.2"/></g><g transform="translate(-338,-118) scale(1,1)"><path fill="#ffffff" stroke="none" d="M 600 232 C 600 214.3268864 640.7420832 200 691 200 C 741.2579168 200 782 214.3268864 782 232 C 782 249.6731136 741.2579168 264 691 264 C 640.7420832 264 600 249.6731136 600 232 Z"/></g><g transform="translate(-338,-118) scale(1,1)"><path fill="none" stroke="#000000" d="M 600 232 C 600 214.3268864 640.7420832 200 691 200 C 741.2579168 200 782 214.3268864 782 232 C 782 249.6731136 741.2579168 264 691 264 C 640.7420832 264 600 249.6731136 600 232 Z" stroke-miterlimit="10"/></g><g transform="translate(-338,-118) scale(1,1)"><g><path fill="none" stroke="none"/><text fill="#000000" stroke="none" font-family="Arial" font-size="13px" font-style="normal" font-weight="bold" text-decoration="none" x="635.00732421875" y="239">Gerenciar Usuários</text></g></g><g transform="translate(-338,-118) scale(1,1)"><path fill="#C0C0C0" stroke="none" d="M 583 343 C 583 325.3268864 633.36796 311 695.5 311 C 757.63204 311 808 325.3268864 808 343 C 808 360.6731136 757.63204 375 695.5 375 C 633.36796 375 583 360.6731136 583 343 Z" opacity="0.2"/></g><g transform="translate(-338,-118) scale(1,1)"><path fill="#ffffff" stroke="none" d="M 576 336 C 576 318.3268864 626.36796 304 688.5 304 C 750.63204 304 801 318.3268864 801 336 C 801 353.6731136 750.63204 368 688.5 368 C 626.36796 368 576 353.6731136 576 336 Z"/></g><g transform="translate(-338,-118) scale(1,1)"><path fill="none" stroke="#000000" d="M 576 336 C 576 318.3268864 626.36796 304 688.5 304 C 750.63204 304 801 318.3268864 801 336 C 801 353.6731136 750.63204 368 688.5 368 C 626.36796 368 576 353.6731136 576 336 Z" stroke-miterlimit="10"/></g><g transform="translate(-338,-118) scale(1,1)"><g><path fill="none" stroke="none"/><text fill="#000000" stroke="none" font-family="Arial" font-size="13px" font-style="normal" font-weight="bold" text-decoration="none" x="618.050537109375" y="343">Gerenciar Fornecedores</text></g></g><g transform="translate(-338,-118) scale(1,1)"><path fill="#C0C0C0" stroke="none" d="M 583 455 C 583 437.3268864 633.1441024 423 695 423 C 756.8558976 423 807 437.3268864 807 455 C 807 472.6731136 756.8558976 487 695 487 C 633.1441024 487 583 472.6731136 583 455 Z" opacity="0.2"/></g><g transform="translate(-338,-118) scale(1,1)"><path fill="#ffffff" stroke="none" d="M 576 448 C 576 430.3268864 626.1441024 416 688 416 C 749.8558976 416 800 430.3268864 800 448 C 800 465.6731136 749.8558976 480 688 480 C 626.1441024 480 576 465.6731136 576 448 Z"/></g><g transform="translate(-338,-118) scale(1,1)"><path fill="none" stroke="#000000" d="M 576 448 C 576 430.3268864 626.1441024 416 688 416 C 749.8558976 416 800 430.3268864 800 448 C 800 465.6731136 749.8558976 480 688 480 C 626.1441024 480 576 465.6731136 576 448 Z" stroke-miterlimit="10"/></g><g transform="translate(-338,-118) scale(1,1)"><g><path fill="none" stroke="none"/><text fill="#000000" stroke="none" font-family="Arial" font-size="13px" font-style="normal" font-weight="bold" text-decoration="none" x="641.0400390625" y="455">Gerenciar Perfis</text></g></g><g transform="translate(-338,-118) scale(1,1)"><path fill="none" stroke="#000000" d="M 446 256 L 474 256 L 474 232 L 600 232" stroke-miterlimit="10"/></g><g transform="translate(-338,-118) scale(1,1)"><path fill="none" stroke="#000000" d="M 589.8373251423759 236.209517756016 L 600 232 L 589.8373251423758 227.790482243984" stroke-miterlimit="10"/></g><g transform="translate(-338,-118) scale(1,1)"><path fill="none" stroke="#000000" d="M 446 296 L 464 296 L 464 336 L 576 336" stroke-miterlimit="10"/></g><g transform="translate(-338,-118) scale(1,1)"><path fill="none" stroke="#000000" d="M 565.8373251423759 340.209517756016 L 576 336 L 565.8373251423758 331.790482243984" stroke-miterlimit="10"/></g><g transform="translate(-338,-118) scale(1,1)"><path fill="none" stroke="#000000" d="M 396 324 L 396 352 L 474 352 L 474 448 L 576 448" stroke-miterlimit="10"/></g><g transform="translate(-338,-118) scale(1,1)"><path fill="none" stroke="#000000" d="M 565.8373251423759 452.209517756016 L 576 448 L 565.8373251423758 443.790482243984" stroke-miterlimit="10"/></g></g></svg>