<svg version="1.1" xmlns="http://www.w3.org/2000/svg" xmlns:xlink="http://www.w3.org/1999/xlink" width="1187.5126953125" height="532"><defs/><g><text fill="#eeeeee" stroke="none" font-family="Arial" font-size="24px" font-style="normal" font-weight="normal" text-decoration="none" x="0" y="0">UNREGISTERED</text><text fill="#eeeeee" stroke="none" font-family="Arial" font-size="24px" font-style="normal" font-weight="normal" text-decoration="none" x="0" y="30">UNREGISTERED</text><text fill="#eeeeee" stroke="none" font-family="Arial" font-size="24px" font-style="normal" font-weight="normal" text-decoration="none" x="0" y="60">UNREGISTERED</text><text fill="#eeeeee" stroke="none" font-family="Arial" font-size="24px" font-style="normal" font-weight="normal" text-decoration="none" x="0" y="90">UNREGISTERED</text><text fill="#eeeeee" stroke="none" font-family="Arial" font-size="24px" font-style="normal" font-weight="normal" text-decoration="none" x="0" y="120">UNREGISTERED</text><text fill="#eeeeee" stroke="none" font-family="Arial" font-size="24px" font-style="normal" font-weight="normal" text-decoration="none" x="0" y="150">UNREGISTERED</text><text fill="#eeeeee" stroke="none" font-family="Arial" font-size="24px" font-style="normal" font-weight="normal" text-decoration="none" x="0" y="180">UNREGISTERED</text><text fill="#eeeeee" stroke="none" font-family="Arial" font-size="24px" font-style="normal" font-weight="normal" text-decoration="none" x="0" y="210">UNREGISTERED</text><text fill="#eeeeee" stroke="none" font-family="Arial" font-size="24px" font-style="normal" font-weight="normal" text-decoration="none" x="0" y="240">UNREGISTERED</text><text fill="#eeeeee" stroke="none" font-family="Arial" font-size="24px" font-style="normal" font-weight="normal" text-decoration="none" x="0" y="270">UNREGISTERED</text><text fill="#eeeeee" stroke="none" font-family="Arial" font-size="24px" font-style="normal" font-weight="normal" text-decoration="none" x="0" y="300">UNREGISTERED</text><text fill="#eeeeee" stroke="none" font-family="Arial" font-size="24px" font-style="normal" font-weight="normal" text-decoration="none" x="0" y="330">UNREGISTERED</text><text fill="#eeeeee" stroke="none" font-family="Arial" font-size="24px" font-style="normal" font-weight="normal" text-decoration="none" x="0" y="360">UNREGISTERED</text><text fill="#eeeeee" stroke="none" font-family="Arial" font-size="24px" font-style="normal" font-weight="normal" text-decoration="none" x="0" y="390">UNREGISTERED</text><text fill="#eeeeee" stroke="none" font-family="Arial" font-size="24px" font-style="normal" font-weight="normal" text-decoration="none" x="0" y="420">UNREGISTERED</text><text fill="#eeeeee" stroke="none" font-family="Arial" font-size="24px" font-style="normal" font-weight="normal" text-decoration="none" x="0" y="450">UNREGISTERED</text><text fill="#eeeeee" stroke="none" font-family="Arial" font-size="24px" font-style="normal" font-weight="normal" text-decoration="none" x="0" y="480">UNREGISTERED</text><text fill="#eeeeee" stroke="none" font-family="Arial" font-size="24px" font-style="normal" font-weight="normal" text-decoration="none" x="0" y="510">UNREGISTERED</text><text fill="#eeeeee" stroke="none" font-family="Arial" font-size="24px" font-style="normal" font-weight="normal" text-decoration="none" x="200" y="0">UNREGISTERED</text><text fill="#eeeeee" stroke="none" font-family="Arial" font-size="24px" font-style="normal" font-weight="normal" text-decoration="none" x="200" y="30">UNREGISTERED</text><text fill="#eeeeee" stroke="none" font-family="Arial" font-size="24px" font-style="normal" font-weight="normal" text-decoration="none" x="200" y="60">UNREGISTERED</text><text fill="#eeeeee" stroke="none" font-family="Arial" font-size="24px" font-style="normal" font-weight="normal" text-decoration="none" x="200" y="90">UNREGISTERED</text><text fill="#eeeeee" stroke="none" font-family="Arial" font-size="24px" font-style="normal" font-weight="normal" text-decoration="none" x="200" y="120">UNREGISTERED</text><text fill="#eeeeee" stroke="none" font-family="Arial" font-size="24px" font-style="normal" font-weight="normal" text-decoration="none" x="200" y="150">UNREGISTERED</text><text fill="#eeeeee" stroke="none" font-family="Arial" font-size="24px" font-style="normal" font-weight="normal" text-decoration="none" x="200" y="180">UNREGISTERED</text><text fill="#eeeeee" stroke="none" font-family="Arial" font-size="24px" font-style="normal" font-weight="normal" text-decoration="none" x="200" y="210">UNREGISTERED</text><text fill="#eeeeee" stroke="none" font-family="Arial" font-size="24px" font-style="normal" font-weight="normal" text-decoration="none" x="200" y="240">UNREGISTERED</text><text fill="#eeeeee" stroke="none" font-family="Arial" font-size="24px" font-style="normal" font-weight="normal" text-decoration="none" x="200" y="270">UNREGISTERED</text><text fill="#eeeeee" stroke="none" font-family="Arial" font-size="24px" font-style="normal" font-weight="normal" text-decoration="none" x="200" y="300">UNREGISTERED</text><text fill="#eeeeee" stroke="none" font-family="Arial" font-size="24px" font-style="normal" font-weight="normal" text-decoration="none" x="200" y="330">UNREGISTERED</text><text fill="#eeeeee" stroke="none" font-family="Arial" font-size="24px" font-style="normal" font-weight="normal" text-decoration="none" x="200" y="360">UNREGISTERED</text><text fill="#eeeeee" stroke="none" font-family="Arial" font-size="24px" font-style="normal" font-weight="normal" text-decoration="none" x="200" y="390">UNREGISTERED</text><text fill="#eeeeee" stroke="none" font-family="Arial" font-size="24px" font-style="normal" font-weight="normal" text-decoration="none" x="200" y="420">UNREGISTERED</text><text fill="#eeeeee" stroke="none" font-family="Arial" font-size="24px" font-style="normal" font-weight="normal" text-decoration="none" x="200" y="450">UNREGISTERED</text><text fill="#eeeeee" stroke="none" font-family="Arial" font-size="24px" font-style="normal" font-weight="normal" text-decoration="none" x="200" y="480">UNREGISTERED</text><text fill="#eeeeee" stroke="none" font-family="Arial" font-size="24px" font-style="normal" font-weight="normal" text-decoration="none" x="200" y="510">UNREGISTERED</text><text fill="#eeeeee" stroke="none" font-family="Arial" font-size="24px" font-style="normal" font-weight="normal" text-decoration="none" x="400" y="0">UNREGISTERED</text><text fill="#eeeeee" stroke="none" font-family="Arial" font-size="24px" font-style="normal" font-weight="normal" text-decoration="none" x="400" y="30">UNREGISTERED</text><text fill="#eeeeee" stroke="none" font-family="Arial" font-size="24px" font-style="normal" font-weight="normal" text-decoration="none" x="400" y="60">UNREGISTERED</text><text fill="#eeeeee" stroke="none" font-family="Arial" font-size="24px" font-style="normal" font-weight="normal" text-decoration="none" x="400" y="90">UNREGISTERED</text><text fill="#eeeeee" stroke="none" font-family="Arial" font-size="24px" font-style="normal" font-weight="normal" text-decoration="none" x="400" y="120">UNREGISTERED</text><text fill="#eeeeee" stroke="none" font-family="Arial" font-size="24px" font-style="normal" font-weight="normal" text-decoration="none" x="400" y="150">UNREGISTERED</text><text fill="#eeeeee" stroke="none" font-family="Arial" font-size="24px" font-style="normal" font-weight="normal" text-decoration="none" x="400" y="180">UNREGISTERED</text><text fill="#eeeeee" stroke="none" font-family="Arial" font-size="24px" font-style="normal" font-weight="normal" text-decoration="none" x="400" y="210">UNREGISTERED</text><text fill="#eeeeee" stroke="none" font-family="Arial" font-size="24px" font-style="normal" font-weight="normal" text-decoration="none" x="400" y="240">UNREGISTERED</text><text fill="#eeeeee" stroke="none" font-family="Arial" font-size="24px" font-style="normal" font-weight="normal" text-decoration="none" x="400" y="270">UNREGISTERED</text><text fill="#eeeeee" stroke="none" font-family="Arial" font-size="24px" font-style="normal" font-weight="normal" text-decoration="none" x="400" y="300">UNREGISTERED</text><text fill="#eeeeee" stroke="none" font-family="Arial" font-size="24px" font-style="normal" font-weight="normal" text-decoration="none" x="400" y="330">UNREGISTERED</text><text fill="#eeeeee" stroke="none" font-family="Arial" font-size="24px" font-style="normal" font-weight="normal" text-decoration="none" x="400" y="360">UNREGISTERED</text><text fill="#eeeeee" stroke="none" font-family="Arial" font-size="24px" font-style="normal" font-weight="normal" text-decoration="none" x="400" y="390">UNREGISTERED</text><text fill="#eeeeee" stroke="none" font-family="Arial" font-size="24px" font-style="normal" font-weight="normal" text-decoration="none" x="400" y="420">UNREGISTERED</text><text fill="#eeeeee" stroke="none" font-family="Arial" font-size="24px" font-style="normal" font-weight="normal" text-decoration="none" x="400" y="450">UNREGISTERED</text><text fill="#eeeeee" stroke="none" font-family="Arial" font-size="24px" font-style="normal" font-weight="normal" text-decoration="none" x="400" y="480">UNREGISTERED</text><text fill="#eeeeee" stroke="none" font-family="Arial" font-size="24px" font-style="normal" font-weight="normal" text-decoration="none" x="400" y="510">UNREGISTERED</text><text fill="#eeeeee" stroke="none" font-family="Arial" font-size="24px" font-style="normal" font-weight="normal" text-decoration="none" x="600" y="0">UNREGISTERED</text><text fill="#eeeeee" stroke="none" font-family="Arial" font-size="24px" font-style="normal" font-weight="normal" text-decoration="none" x="600" y="30">UNREGISTERED</text><text fill="#eeeeee" stroke="none" font-family="Arial" font-size="24px" font-style="normal" font-weight="normal" text-decoration="none" x="600" y="60">UNREGISTERED</text><text fill="#eeeeee" stroke="none" font-family="Arial" font-size="24px" font-style="normal" font-weight="normal" text-decoration="none" x="600" y="90">UNREGISTERED</text><text fill="#eeeeee" stroke="none" font-family="Arial" font-size="24px" font-style="normal" font-weight="normal" text-decoration="none" x="600" y="120">UNREGISTERED</text><text fill="#eeeeee" stroke="none" font-family="Arial" font-size="24px" font-style="normal" font-weight="normal" text-decoration="none" x="600" y="150">UNREGISTERED</text><text fill="#eeeeee" stroke="none" font-family="Arial" font-size="24px" font-style="normal" font-weight="normal" text-decoration="none" x="600" y="180">UNREGISTERED</text><text fill="#eeeeee" stroke="none" font-family="Arial" font-size="24px" font-style="normal" font-weight="normal" text-decoration="none" x="600" y="210">UNREGISTERED</text><text fill="#eeeeee" stroke="none" font-family="Arial" font-size="24px" font-style="normal" font-weight="normal" text-decoration="none" x="600" y="240">UNREGISTERED</text><text fill="#eeeeee" stroke="none" font-family="Arial" font-size="24px" font-style="normal" font-weight="normal" text-decoration="none" x="600" y="270">UNREGISTERED</text><text fill="#eeeeee" stroke="none" font-family="Arial" font-size="24px" font-style="normal" font-weight="normal" text-decoration="none" x="600" y="300">UNREGISTERED</text><text fill="#eeeeee" stroke="none" font-family="Arial" font-size="24px" font-style="normal" font-weight="normal" text-decoration="none" x="600" y="330">UNREGISTERED</text><text fill="#eeeeee" stroke="none" font-family="Arial" font-size="24px" font-style="normal" font-weight="normal" text-decoration="none" x="600" y="360">UNREGISTERED</text><text fill="#eeeeee" stroke="none" font-family="Arial" font-size="24px" font-style="normal" font-weight="normal" text-decoration="none" x="600" y="390">UNREGISTERED</text><text fill="#eeeeee" stroke="none" font-family="Arial" font-size="24px" font-style="normal" font-weight="normal" text-decoration="none" x="600" y="420">UNREGISTERED</text><text fill="#eeeeee" stroke="none" font-family="Arial" font-size="24px" font-style="normal" font-weight="normal" text-decoration="none" x="600" y="450">UNREGISTERED</text><text fill="#eeeeee" stroke="none" font-family="Arial" font-size="24px" font-style="normal" font-weight="normal" text-decoration="none" x="600" y="480">UNREGISTERED</text><text fill="#eeeeee" stroke="none" font-family="Arial" font-size="24px" font-style="normal" font-weight="normal" text-decoration="none" x="600" y="510">UNREGISTERED</text><text fill="#eeeeee" stroke="none" font-family="Arial" font-size="24px" font-style="normal" font-weight="normal" text-decoration="none" x="800" y="0">UNREGISTERED</text><text fill="#eeeeee" stroke="none" font-family="Arial" font-size="24px" font-style="normal" font-weight="normal" text-decoration="none" x="800" y="30">UNREGISTERED</text><text fill="#eeeeee" stroke="none" font-family="Arial" font-size="24px" font-style="normal" font-weight="normal" text-decoration="none" x="800" y="60">UNREGISTERED</text><text fill="#eeeeee" stroke="none" font-family="Arial" font-size="24px" font-style="normal" font-weight="normal" text-decoration="none" x="800" y="90">UNREGISTERED</text><text fill="#eeeeee" stroke="none" font-family="Arial" font-size="24px" font-style="normal" font-weight="normal" text-decoration="none" x="800" y="120">UNREGISTERED</text><text fill="#eeeeee" stroke="none" font-family="Arial" font-size="24px" font-style="normal" font-weight="normal" text-decoration="none" x="800" y="150">UNREGISTERED</text><text fill="#eeeeee" stroke="none" font-family="Arial" font-size="24px" font-style="normal" font-weight="normal" text-decoration="none" x="800" y="180">UNREGISTERED</text><text fill="#eeeeee" stroke="none" font-family="Arial" font-size="24px" font-style="normal" font-weight="normal" text-decoration="none" x="800" y="210">UNREGISTERED</text><text fill="#eeeeee" stroke="none" font-family="Arial" font-size="24px" font-style="normal" font-weight="normal" text-decoration="none" x="800" y="240">UNREGISTERED</text><text fill="#eeeeee" stroke="none" font-family="Arial" font-size="24px" font-style="normal" font-weight="normal" text-decoration="none" x="800" y="270">UNREGISTERED</text><text fill="#eeeeee" stroke="none" font-family="Arial" font-size="24px" font-style="normal" font-weight="normal" text-decoration="none" x="800" y="300">UNREGISTERED</text><text fill="#eeeeee" stroke="none" font-family="Arial" font-size="24px" font-style="normal" font-weight="normal" text-decoration="none" x="800" y="330">UNREGISTERED</text><text fill="#eeeeee" stroke="none" font-family="Arial" font-size="24px" font-style="normal" font-weight="normal" text-decoration="none" x="800" y="360">UNREGISTERED</text><text fill="#eeeeee" stroke="none" font-family="Arial" font-size="24px" font-style="normal" font-weight="normal" text-decoration="none" x="800" y="390">UNREGISTERED</text><text fill="#eeeeee" stroke="none" font-family="Arial" font-size="24px" font-style="normal" font-weight="normal" text-decoration="none" x="800" y="420">UNREGISTERED</text><text fill="#eeeeee" stroke="none" font-family="Arial" font-size="24px" font-style="normal" font-weight="normal" text-decoration="none" x="800" y="450">UNREGISTERED</text><text fill="#eeeeee" stroke="none" font-family="Arial" font-size="24px" font-style="normal" font-weight="normal" text-decoration="none" x="800" y="480">UNREGISTERED</text><text fill="#eeeeee" stroke="none" font-family="Arial" font-size="24px" font-style="normal" font-weight="normal" text-decoration="none" x="800" y="510">UNREGISTERED</text><text fill="#eeeeee" stroke="none" font-family="Arial" font-size="24px" font-style="normal" font-weight="normal" text-decoration="none" x="1000" y="0">UNREGISTERED</text><text fill="#eeeeee" stroke="none" font-family="Arial" font-size="24px" font-style="normal" font-weight="normal" text-decoration="none" x="1000" y="30">UNREGISTERED</text><text fill="#eeeeee" stroke="none" font-family="Arial" font-size="24px" font-style="normal" font-weight="normal" text-decoration="none" x="1000" y="60">UNREGISTERED</text><text fill="#eeeeee" stroke="none" font-family="Arial" font-size="24px" font-style="normal" font-weight="normal" text-decoration="none" x="1000" y="90">UNREGISTERED</text><text fill="#eeeeee" stroke="none" font-family="Arial" font-size="24px" font-style="normal" font-weight="normal" text-decoration="none" x="1000" y="120">UNREGISTERED</text><text fill="#eeeeee" stroke="none" font-family="Arial" font-size="24px" font-style="normal" font-weight="normal" text-decoration="none" x="1000" y="150">UNREGISTERED</text><text fill="#eeeeee" stroke="none" font-family="Arial" font-size="24px" font-style="normal" font-weight="normal" text-decoration="none" x="1000" y="180">UNREGISTERED</text><text fill="#eeeeee" stroke="none" font-family="Arial" font-size="24px" font-style="normal" font-weight="normal" text-decoration="none" x="1000" y="210">UNREGISTERED</text><text fill="#eeeeee" stroke="none" font-family="Arial" font-size="24px" font-style="normal" font-weight="normal" text-decoration="none" x="1000" y="240">UNREGISTERED</text><text fill="#eeeeee" stroke="none" font-family="Arial" font-size="24px" font-style="normal" font-weight="normal" text-decoration="none" x="1000" y="270">UNREGISTERED</text><text fill="#eeeeee" stroke="none" font-family="Arial" font-size="24px" font-style="normal" font-weight="normal" text-decoration="none" x="1000" y="300">UNREGISTERED</text><text fill="#eeeeee" stroke="none" font-family="Arial" font-size="24px" font-style="normal" font-weight="normal" text-decoration="none" x="1000" y="330">UNREGISTERED</text><text fill="#eeeeee" stroke="none" font-family="Arial" font-size="24px" font-style="normal" font-weight="normal" text-decoration="none" x="1000" y="360">UNREGISTERED</text><text fill="#eeeeee" stroke="none" font-family="Arial" font-size="24px" font-style="normal" font-weight="normal" text-decoration="none" x="1000" y="390">UNREGISTERED</text><text fill="#eeeeee" stroke="none" font-family="Arial" font-size="24px" font-style="normal" font-weight="normal" text-decoration="none" x="1000" y="420">UNREGISTERED</text><text fill="#eeeeee" stroke="none" font-family="Arial" font-size="24px" font-style="normal" font-weight="normal" text-decoration="none" x="1000" y="450">UNREGISTERED</text><text fill="#eeeeee" stroke="none" font-family="Arial" font-size="24px" font-style="normal" font-weight="normal" text-decoration="none" x="1000" y="480">UNREGISTERED</text><text fill="#eeeeee" stroke="none" font-family="Arial" font-size="24px" font-style="normal" font-weight="normal" text-decoration="none" x="1000" y="510">UNREGISTERED</text><g transform="translate(1,2) scale(1,1)"><rect fill="#C0C0C0" stroke="none" x="127" y="15" width="416" height="512" opacity="0.2"/></g><g transform="translate(1,2) scale(1,1)"><rect fill="#ffffff" stroke="none" x="120" y="8" width="416" height="512"/></g><g transform="translate(1,2) scale(1,1)"><path fill="none" stroke="#000000" d="M 120 8 L 536 8 L 536 520 L 120 520 L 120 8 Z Z" stroke-miterlimit="10"/></g><g transform="translate(1,2) scale(1,1)"><g><path fill="none" stroke="none"/><text fill="#000000" stroke="none" font-family="Arial" font-size="13px" font-style="normal" font-weight="bold" text-decoration="none" x="269.471435546875" y="27.5">Módulo de Compras</text></g></g><g transform="translate(1,2) scale(1,1)"><rect fill="#C0C0C0" stroke="none" x="575" y="15" width="336" height="512" opacity="0.2"/></g><g transform="translate(1,2) scale(1,1)"><rect fill="#ffffff" stroke="none" x="568" y="8" width="336" height="512"/></g><g transform="translate(1,2) scale(1,1)"><path fill="none" stroke="#000000" d="M 568 8 L 904 8 L 904 520 L 568 520 L 568 8 Z Z" stroke-miterlimit="10"/></g><g transform="translate(1,2) scale(1,1)"><g><path fill="none" stroke="none"/><text fill="#000000" stroke="none" font-family="Arial" font-size="13px" font-style="normal" font-weight="bold" text-decoration="none" x="679.635986328125" y="27.5">Módulo Fornecedor</text></g></g><g transform="translate(1,2) scale(1,1)"><path fill="#ffffff" stroke="none" d="M 33.49162571022727 121.68 C 33.49162571022727 116.886167936 37.377468035172726 113 42.1708984375 113 C 46.964328839827274 113 50.85017116477273 116.886167936 50.85017116477273 121.68 C 50.85017116477273 126.473832064 46.964328839827274 130.36 42.1708984375 130.36 C 37.377468035172726 130.36 33.49162571022727 126.473832064 33.49162571022727 121.68 Z"/></g><g transform="translate(1,2) scale(1,1)"><path fill="none" stroke="#000000" d="M 33.49162571022727 121.68 C 33.49162571022727 116.886167936 37.377468035172726 113 42.1708984375 113 C 46.964328839827274 113 50.85017116477273 116.886167936 50.85017116477273 121.68 C 50.85017116477273 126.473832064 46.964328839827274 130.36 42.1708984375 130.36 C 37.377468035172726 130.36 33.49162571022727 126.473832064 33.49162571022727 121.68 Z" stroke-miterlimit="10"/></g><g transform="translate(1,2) scale(1,1)"><path fill="none" stroke="#000000" d="M 42.1708984375 130.36 L 42.1708984375 147.64" stroke-miterlimit="10"/></g><g transform="translate(1,2) scale(1,1)"><path fill="none" stroke="#000000" d="M 32.98108025568182 136.84 L 51.36071661931818 136.84" stroke-miterlimit="10"/></g><g transform="translate(1,2) scale(1,1)"><path fill="none" stroke="#000000" d="M 42.1708984375 147.64 L 29.407262073863635 165" stroke-miterlimit="10"/></g><g transform="translate(1,2) scale(1,1)"><path fill="none" stroke="#000000" d="M 42.1708984375 147.64 L 54.934534801136365 165" stroke-miterlimit="10"/></g><g transform="translate(1,2) scale(1,1)"><g><path fill="none" stroke="none"/><text fill="#000000" stroke="none" font-family="Arial" font-size="13px" font-style="normal" font-weight="bold" text-decoration="none" x="21.937744140625" y="185.5">Cliente</text></g></g><g transform="translate(1,2) scale(1,1)"><path fill="#C0C0C0" stroke="none" d="M 183 187 C 183 171.5360256 245.9039856 159 323.5 159 C 401.0960144 159 464 171.5360256 464 187 C 464 202.4639744 401.0960144 215 323.5 215 C 245.9039856 215 183 202.4639744 183 187 Z" opacity="0.2"/></g><g transform="translate(1,2) scale(1,1)"><path fill="#ffffff" stroke="none" d="M 176 180 C 176 164.5360256 238.9039856 152 316.5 152 C 394.0960144 152 457 164.5360256 457 180 C 457 195.4639744 394.0960144 208 316.5 208 C 238.9039856 208 176 195.4639744 176 180 Z"/></g><g transform="translate(1,2) scale(1,1)"><path fill="none" stroke="#000000" d="M 176 180 C 176 164.5360256 238.9039856 152 316.5 152 C 394.0960144 152 457 164.5360256 457 180 C 457 195.4639744 394.0960144 208 316.5 208 C 238.9039856 208 176 195.4639744 176 180 Z" stroke-miterlimit="10"/></g><g transform="translate(1,2) scale(1,1)"><g><path fill="none" stroke="none"/><text fill="#000000" stroke="none" font-family="Arial" font-size="13px" font-style="normal" font-weight="bold" text-decoration="none" x="227.267822265625" y="187">Gerenciar Carrinho de Compra</text></g></g><g transform="translate(1,2) scale(1,1)"><path fill="none" stroke="#000000" d="M 68 168 L 176 168" stroke-miterlimit="10"/></g><g transform="translate(1,2) scale(1,1)"><path fill="none" stroke="#000000" d="M 165.83732514237585 172.209517756016 L 176 168 L 165.83732514237585 163.790482243984" stroke-miterlimit="10"/></g><g transform="translate(1,2) scale(1,1)"><path fill="#C0C0C0" stroke="none" d="M 223 92 C 223 75.98374079999999 264.6375136 63 316 63 C 367.3624864 63 409 75.98374079999999 409 92 C 409 108.01625920000001 367.3624864 121 316 121 C 264.6375136 121 223 108.01625920000001 223 92 Z" opacity="0.2"/></g><g transform="translate(1,2) scale(1,1)"><path fill="#ffffff" stroke="none" d="M 216 85 C 216 68.98374079999999 257.6375136 56 309 56 C 360.3624864 56 402 68.98374079999999 402 85 C 402 101.01625920000001 360.3624864 114 309 114 C 257.6375136 114 216 101.01625920000001 216 85 Z"/></g><g transform="translate(1,2) scale(1,1)"><path fill="none" stroke="#000000" d="M 216 85 C 216 68.98374079999999 257.6375136 56 309 56 C 360.3624864 56 402 68.98374079999999 402 85 C 402 101.01625920000001 360.3624864 114 309 114 C 257.6375136 114 216 101.01625920000001 216 85 Z" stroke-miterlimit="10"/></g><g transform="translate(1,2) scale(1,1)"><g><path fill="none" stroke="none"/><text fill="#000000" stroke="none" font-family="Arial" font-size="13px" font-style="normal" font-weight="bold" text-decoration="none" x="252.274169921875" y="92">Pesquisar Produtos</text></g></g><g transform="translate(1,2) scale(1,1)"><path fill="none" stroke="#000000" d="M 68 136 L 240 136 L 240 114" stroke-miterlimit="10"/></g><g transform="translate(1,2) scale(1,1)"><path fill="none" stroke="#000000" d="M 244.209517756016 124.16267485762415 L 240 114 L 235.790482243984 124.16267485762415" stroke-miterlimit="10"/></g><g transform="translate(1,2) scale(1,1)"><path fill="#C0C0C0" stroke="none" d="M 191 264 C 191 254.6111584 251.8892672 247 327 247 C 402.1107328 247 463 254.6111584 463 264 C 463 273.3888416 402.1107328 281 327 281 C 251.8892672 281 191 273.3888416 191 264 Z" opacity="0.2"/></g><g transform="translate(1,2) scale(1,1)"><path fill="#ffffff" stroke="none" d="M 184 257 C 184 247.6111584 244.8892672 240 320 240 C 395.1107328 240 456 247.6111584 456 257 C 456 266.3888416 395.1107328 274 320 274 C 244.8892672 274 184 266.3888416 184 257 Z"/></g><g transform="translate(1,2) scale(1,1)"><path fill="none" stroke="#000000" d="M 184 257 C 184 247.6111584 244.8892672 240 320 240 C 395.1107328 240 456 247.6111584 456 257 C 456 266.3888416 395.1107328 274 320 274 C 244.8892672 274 184 266.3888416 184 257 Z" stroke-miterlimit="10"/></g><g transform="translate(1,2) scale(1,1)"><g><path fill="none" stroke="none"/><text fill="#000000" stroke="none" font-family="Arial" font-size="13px" font-style="normal" font-weight="bold" text-decoration="none" x="270.513671875" y="264">Finalizar Compra</text></g></g><g transform="translate(1,2) scale(1,1)"><path fill="none" stroke="#000000" d="M 68 152 L 184 152 L 184 240" stroke-miterlimit="10"/></g><g transform="translate(1,2) scale(1,1)"><path fill="none" stroke="#000000" d="M 179.790482243984 229.83732514237585 L 184 240 L 188.209517756016 229.83732514237585" stroke-miterlimit="10"/></g><g transform="translate(1,2) scale(1,1)"><path fill="#C0C0C0" stroke="none" d="M 151 360 C 151 350.6111584 187.2649312 343 232 343 C 276.7350688 343 313 350.6111584 313 360 C 313 369.3888416 276.7350688 377 232 377 C 187.2649312 377 151 369.3888416 151 360 Z" opacity="0.2"/></g><g transform="translate(1,2) scale(1,1)"><path fill="#ffffff" stroke="none" d="M 144 353 C 144 343.6111584 180.2649312 336 225 336 C 269.7350688 336 306 343.6111584 306 353 C 306 362.3888416 269.7350688 370 225 370 C 180.2649312 370 144 362.3888416 144 353 Z"/></g><g transform="translate(1,2) scale(1,1)"><path fill="none" stroke="#000000" d="M 144 353 C 144 343.6111584 180.2649312 336 225 336 C 269.7350688 336 306 343.6111584 306 353 C 306 362.3888416 269.7350688 370 225 370 C 180.2649312 370 144 362.3888416 144 353 Z" stroke-miterlimit="10"/></g><g transform="translate(1,2) scale(1,1)"><g><path fill="none" stroke="none"/><text fill="#000000" stroke="none" font-family="Arial" font-size="13px" font-style="normal" font-weight="bold" text-decoration="none" x="186.333251953125" y="360">Efetuar Login</text></g></g><g transform="translate(1,2) scale(1,1)"><path fill="#C0C0C0" stroke="none" d="M 319 360 C 319 350.6111584 367.3532416 343 427 343 C 486.6467584 343 535 350.6111584 535 360 C 535 369.3888416 486.6467584 377 427 377 C 367.3532416 377 319 369.3888416 319 360 Z" opacity="0.2"/></g><g transform="translate(1,2) scale(1,1)"><path fill="#ffffff" stroke="none" d="M 312 353 C 312 343.6111584 360.3532416 336 420 336 C 479.6467584 336 528 343.6111584 528 353 C 528 362.3888416 479.6467584 370 420 370 C 360.3532416 370 312 362.3888416 312 353 Z"/></g><g transform="translate(1,2) scale(1,1)"><path fill="none" stroke="#000000" d="M 312 353 C 312 343.6111584 360.3532416 336 420 336 C 479.6467584 336 528 343.6111584 528 353 C 528 362.3888416 479.6467584 370 420 370 C 360.3532416 370 312 362.3888416 312 353 Z" stroke-miterlimit="10"/></g><g transform="translate(1,2) scale(1,1)"><g><path fill="none" stroke="none"/><text fill="#000000" stroke="none" font-family="Arial" font-size="13px" font-style="normal" font-weight="bold" text-decoration="none" x="356.767822265625" y="360">Efetuar Cadastro Loja</text></g></g><g transform="translate(1,2) scale(1,1)"><path fill="none" stroke="#000000" d="M 240 274 L 240 336" stroke-miterlimit="10" stroke-dasharray="3"/></g><g transform="translate(1,2) scale(1,1)"><path fill="none" stroke="#000000" d="M 235.790482243984 325.83732514237585 L 240 336 L 244.209517756016 325.83732514237585" stroke-miterlimit="10"/></g><g transform="translate(1,2) scale(1,1)"><g><path fill="none" stroke="none"/><text fill="#000000" stroke="none" font-family="Arial" font-size="13px" font-style="normal" font-weight="normal" text-decoration="none" x="241.5" y="310.5">«include»</text></g></g><g transform="translate(1,2) scale(1,1)"><path fill="none" stroke="#000000" d="M 384 274 L 384 336" stroke-miterlimit="10" stroke-dasharray="3"/></g><g transform="translate(1,2) scale(1,1)"><path fill="none" stroke="#000000" d="M 379.790482243984 325.83732514237585 L 384 336 L 388.209517756016 325.83732514237585" stroke-miterlimit="10"/></g><g transform="translate(1,2) scale(1,1)"><g><path fill="none" stroke="none"/><text fill="#000000" stroke="none" font-family="Arial" font-size="13px" font-style="normal" font-weight="normal" text-decoration="none" x="385.5" y="310.5">«include»</text></g></g><g transform="translate(1,2) scale(1,1)"><path fill="#ffffff" stroke="none" d="M 34.43889133522727 377.68 C 34.43889133522727 372.886167936 38.324733660172726 369 43.1181640625 369 C 47.911594464827274 369 51.79743678977273 372.886167936 51.79743678977273 377.68 C 51.79743678977273 382.473832064 47.911594464827274 386.36 43.1181640625 386.36 C 38.324733660172726 386.36 34.43889133522727 382.473832064 34.43889133522727 377.68 Z"/></g><g transform="translate(1,2) scale(1,1)"><path fill="none" stroke="#000000" d="M 34.43889133522727 377.68 C 34.43889133522727 372.886167936 38.324733660172726 369 43.1181640625 369 C 47.911594464827274 369 51.79743678977273 372.886167936 51.79743678977273 377.68 C 51.79743678977273 382.473832064 47.911594464827274 386.36 43.1181640625 386.36 C 38.324733660172726 386.36 34.43889133522727 382.473832064 34.43889133522727 377.68 Z" stroke-miterlimit="10"/></g><g transform="translate(1,2) scale(1,1)"><path fill="none" stroke="#000000" d="M 43.1181640625 386.36 L 43.1181640625 403.64" stroke-miterlimit="10"/></g><g transform="translate(1,2) scale(1,1)"><path fill="none" stroke="#000000" d="M 33.92834588068182 392.84 L 52.30798224431818 392.84" stroke-miterlimit="10"/></g><g transform="translate(1,2) scale(1,1)"><path fill="none" stroke="#000000" d="M 43.1181640625 403.64 L 30.354527698863635 421" stroke-miterlimit="10"/></g><g transform="translate(1,2) scale(1,1)"><path fill="none" stroke="#000000" d="M 43.1181640625 403.64 L 55.881800426136365 421" stroke-miterlimit="10"/></g><g transform="translate(1,2) scale(1,1)"><g><path fill="none" stroke="none"/><text fill="#000000" stroke="none" font-family="Arial" font-size="13px" font-style="normal" font-weight="bold" text-decoration="none" x="15.286865234375" y="441.5">Vendedor</text></g></g><g transform="translate(1,2) scale(1,1)"><path fill="none" stroke="#000000" d="M 40 368 L 40 191" stroke-miterlimit="10"/></g><g transform="translate(1,2) scale(1,1)"><path fill="#FFFFFF" stroke="none" d="M 48.419035512031975 211.3253497152483 L 40 191 L 31.580964487968025 211.3253497152483"/></g><g transform="translate(1,2) scale(1,1)"><path fill="none" stroke="#000000" d="M 48.419035512031975 211.3253497152483 L 40 191 L 31.580964487968025 211.3253497152483 L 48.419035512031975 211.3253497152483" stroke-miterlimit="10"/></g><g transform="translate(1,2) scale(1,1)"><path fill="none" stroke="#000000" d="M 68 184 L 98 184 L 98 353 L 144 353" stroke-miterlimit="10"/></g><g transform="translate(1,2) scale(1,1)"><path fill="none" stroke="#000000" d="M 133.83732514237585 357.209517756016 L 144 353 L 133.83732514237585 348.790482243984" stroke-miterlimit="10"/></g><g transform="translate(1,2) scale(1,1)"><path fill="none" stroke="#000000" d="M 64 191 L 64 408 L 408 408 L 408 370" stroke-miterlimit="10"/></g><g transform="translate(1,2) scale(1,1)"><path fill="none" stroke="#000000" d="M 412.209517756016 380.16267485762415 L 408 370 L 403.790482243984 380.16267485762415" stroke-miterlimit="10"/></g><g transform="translate(1,2) scale(1,1)"><path fill="#ffffff" stroke="none" d="M 1127.5770749289773 185.68 C 1127.5770749289773 180.886167936 1131.4629172539228 177 1136.25634765625 177 C 1141.0497780585772 177 1144.9356203835227 180.886167936 1144.9356203835227 185.68 C 1144.9356203835227 190.47383206400002 1141.0497780585772 194.36 1136.25634765625 194.36 C 1131.4629172539228 194.36 1127.5770749289773 190.47383206400002 1127.5770749289773 185.68 Z"/></g><g transform="translate(1,2) scale(1,1)"><path fill="none" stroke="#000000" d="M 1127.5770749289773 185.68 C 1127.5770749289773 180.886167936 1131.4629172539228 177 1136.25634765625 177 C 1141.0497780585772 177 1144.9356203835227 180.886167936 1144.9356203835227 185.68 C 1144.9356203835227 190.47383206400002 1141.0497780585772 194.36 1136.25634765625 194.36 C 1131.4629172539228 194.36 1127.5770749289773 190.47383206400002 1127.5770749289773 185.68 Z" stroke-miterlimit="10"/></g><g transform="translate(1,2) scale(1,1)"><path fill="none" stroke="#000000" d="M 1136.25634765625 194.36 L 1136.25634765625 211.64" stroke-miterlimit="10"/></g><g transform="translate(1,2) scale(1,1)"><path fill="none" stroke="#000000" d="M 1127.0665294744317 200.84 L 1145.4461658380683 200.84" stroke-miterlimit="10"/></g><g transform="translate(1,2) scale(1,1)"><path fill="none" stroke="#000000" d="M 1136.25634765625 211.64 L 1123.4927112926136 229" stroke-miterlimit="10"/></g><g transform="translate(1,2) scale(1,1)"><path fill="none" stroke="#000000" d="M 1136.25634765625 211.64 L 1149.0199840198864 229" stroke-miterlimit="10"/></g><g transform="translate(1,2) scale(1,1)"><g><path fill="none" stroke="none"/><text fill="#000000" stroke="none" font-family="Arial" font-size="13px" font-style="normal" font-weight="bold" text-decoration="none" x="1103.016845703125" y="249.5">Fornecedor</text></g></g><g transform="translate(1,2) scale(1,1)"><path fill="#C0C0C0" stroke="none" d="M 615 280 C 615 270.6111584 667.606536 263 732.5 263 C 797.393464 263 850 270.6111584 850 280 C 850 289.3888416 797.393464 297 732.5 297 C 667.606536 297 615 289.3888416 615 280 Z" opacity="0.2"/></g><g transform="translate(1,2) scale(1,1)"><path fill="#ffffff" stroke="none" d="M 608 273 C 608 263.6111584 660.606536 256 725.5 256 C 790.393464 256 843 263.6111584 843 273 C 843 282.3888416 790.393464 290 725.5 290 C 660.606536 290 608 282.3888416 608 273 Z"/></g><g transform="translate(1,2) scale(1,1)"><path fill="none" stroke="#000000" d="M 608 273 C 608 263.6111584 660.606536 256 725.5 256 C 790.393464 256 843 263.6111584 843 273 C 843 282.3888416 790.393464 290 725.5 290 C 660.606536 290 608 282.3888416 608 273 Z" stroke-miterlimit="10"/></g><g transform="translate(1,2) scale(1,1)"><g><path fill="none" stroke="none"/><text fill="#000000" stroke="none" font-family="Arial" font-size="13px" font-style="normal" font-weight="bold" text-decoration="none" x="651.791015625" y="280">Pesquisar Status Entrega</text></g></g><g transform="translate(1,2) scale(1,1)"><path fill="#C0C0C0" stroke="none" d="M 639 352 C 639 342.6111584 675.936504 335 721.5 335 C 767.063496 335 804 342.6111584 804 352 C 804 361.3888416 767.063496 369 721.5 369 C 675.936504 369 639 361.3888416 639 352 Z" opacity="0.2"/></g><g transform="translate(1,2) scale(1,1)"><path fill="#ffffff" stroke="none" d="M 632 345 C 632 335.6111584 668.936504 328 714.5 328 C 760.063496 328 797 335.6111584 797 345 C 797 354.3888416 760.063496 362 714.5 362 C 668.936504 362 632 354.3888416 632 345 Z"/></g><g transform="translate(1,2) scale(1,1)"><path fill="none" stroke="#000000" d="M 632 345 C 632 335.6111584 668.936504 328 714.5 328 C 760.063496 328 797 335.6111584 797 345 C 797 354.3888416 760.063496 362 714.5 362 C 668.936504 362 632 354.3888416 632 345 Z" stroke-miterlimit="10"/></g><g transform="translate(1,2) scale(1,1)"><g><path fill="none" stroke="none"/><text fill="#000000" stroke="none" font-family="Arial" font-size="13px" font-style="normal" font-weight="bold" text-decoration="none" x="663.91552734375" y="352">Cancelar Entrega</text></g></g><g transform="translate(1,2) scale(1,1)"><path fill="#C0C0C0" stroke="none" d="M 583 80 C 583 70.6111584 654.1867168 63 742 63 C 829.8132832 63 901 70.6111584 901 80 C 901 89.3888416 829.8132832 97 742 97 C 654.1867168 97 583 89.3888416 583 80 Z" opacity="0.2"/></g><g transform="translate(1,2) scale(1,1)"><path fill="#ffffff" stroke="none" d="M 576 73 C 576 63.6111584 647.1867168 56 735 56 C 822.8132832 56 894 63.6111584 894 73 C 894 82.3888416 822.8132832 90 735 90 C 647.1867168 90 576 82.3888416 576 73 Z"/></g><g transform="translate(1,2) scale(1,1)"><path fill="none" stroke="#000000" d="M 576 73 C 576 63.6111584 647.1867168 56 735 56 C 822.8132832 56 894 63.6111584 894 73 C 894 82.3888416 822.8132832 90 735 90 C 647.1867168 90 576 82.3888416 576 73 Z" stroke-miterlimit="10"/></g><g transform="translate(1,2) scale(1,1)"><g><path fill="none" stroke="none"/><text fill="#000000" stroke="none" font-family="Arial" font-size="13px" font-style="normal" font-weight="bold" text-decoration="none" x="635.6337890625" y="80">Pesquisar Disponibilidade Produto</text></g></g><g transform="translate(1,2) scale(1,1)"><path fill="#C0C0C0" stroke="none" d="M 655 144 C 655 134.6111584 692.3842192 127 738.5 127 C 784.6157808 127 822 134.6111584 822 144 C 822 153.3888416 784.6157808 161 738.5 161 C 692.3842192 161 655 153.3888416 655 144 Z" opacity="0.2"/></g><g transform="translate(1,2) scale(1,1)"><path fill="#ffffff" stroke="none" d="M 648 137 C 648 127.6111584 685.3842192 120 731.5 120 C 777.6157808 120 815 127.6111584 815 137 C 815 146.3888416 777.6157808 154 731.5 154 C 685.3842192 154 648 146.3888416 648 137 Z"/></g><g transform="translate(1,2) scale(1,1)"><path fill="none" stroke="#000000" d="M 648 137 C 648 127.6111584 685.3842192 120 731.5 120 C 777.6157808 120 815 127.6111584 815 137 C 815 146.3888416 777.6157808 154 731.5 154 C 685.3842192 154 648 146.3888416 648 137 Z" stroke-miterlimit="10"/></g><g transform="translate(1,2) scale(1,1)"><g><path fill="none" stroke="none"/><text fill="#000000" stroke="none" font-family="Arial" font-size="13px" font-style="normal" font-weight="bold" text-decoration="none" x="680.56005859375" y="144">Reservar Produto</text></g></g><g transform="translate(1,2) scale(1,1)"><path fill="#C0C0C0" stroke="none" d="M 663 200 C 663 190.6111584 695.2354944 183 735 183 C 774.7645056 183 807 190.6111584 807 200 C 807 209.3888416 774.7645056 217 735 217 C 695.2354944 217 663 209.3888416 663 200 Z" opacity="0.2"/></g><g transform="translate(1,2) scale(1,1)"><path fill="#ffffff" stroke="none" d="M 656 193 C 656 183.6111584 688.2354944 176 728 176 C 767.7645056 176 800 183.6111584 800 193 C 800 202.3888416 767.7645056 210 728 210 C 688.2354944 210 656 202.3888416 656 193 Z"/></g><g transform="translate(1,2) scale(1,1)"><path fill="none" stroke="#000000" d="M 656 193 C 656 183.6111584 688.2354944 176 728 176 C 767.7645056 176 800 183.6111584 800 193 C 800 202.3888416 767.7645056 210 728 210 C 688.2354944 210 656 202.3888416 656 193 Z" stroke-miterlimit="10"/></g><g transform="translate(1,2) scale(1,1)"><g><path fill="none" stroke="none"/><text fill="#000000" stroke="none" font-family="Arial" font-size="13px" font-style="normal" font-weight="bold" text-decoration="none" x="685.004150390625" y="200">Enviar Produto</text></g></g><g transform="translate(1,2) scale(1,1)"><path fill="none" stroke="#000000" d="M 1152 176 L 1152 72 L 894 72" stroke-miterlimit="10"/></g><g transform="translate(1,2) scale(1,1)"><path fill="none" stroke="#000000" d="M 904.1626748576241 67.79048224398402 L 894 72 L 904.1626748576241 76.20951775601598" stroke-miterlimit="10"/></g><g transform="translate(1,2) scale(1,1)"><path fill="none" stroke="#000000" d="M 1120 176 L 1120 137 L 815 137" stroke-miterlimit="10"/></g><g transform="translate(1,2) scale(1,1)"><path fill="none" stroke="#000000" d="M 825.1626748576241 132.790482243984 L 815 137 L 825.1626748576241 141.209517756016" stroke-miterlimit="10"/></g><g transform="translate(1,2) scale(1,1)"><path fill="none" stroke="#000000" d="M 1096 192 L 800 192" stroke-miterlimit="10"/></g><g transform="translate(1,2) scale(1,1)"><path fill="none" stroke="#000000" d="M 810.1626748576241 187.790482243984 L 800 192 L 810.1626748576241 196.209517756016" stroke-miterlimit="10"/></g><g transform="translate(1,2) scale(1,1)"><path fill="none" stroke="#000000" d="M 1104 255 L 1104 273 L 843 273" stroke-miterlimit="10"/></g><g transform="translate(1,2) scale(1,1)"><path fill="none" stroke="#000000" d="M 853.1626748576241 268.790482243984 L 843 273 L 853.1626748576241 277.209517756016" stroke-miterlimit="10"/></g><g transform="translate(1,2) scale(1,1)"><path fill="none" stroke="#000000" d="M 1136 255 L 1136 345 L 797 345" stroke-miterlimit="10"/></g><g transform="translate(1,2) scale(1,1)"><path fill="none" stroke="#000000" d="M 807.1626748576241 340.790482243984 L 797 345 L 807.1626748576241 349.209517756016" stroke-miterlimit="10"/></g><g transform="translate(1,2) scale(1,1)"><path fill="none" stroke="#000000" d="M 457 168 L 486 168 L 486 128 L 648 128" stroke-miterlimit="10" stroke-dasharray="3"/></g><g transform="translate(1,2) scale(1,1)"><path fill="none" stroke="#000000" d="M 637.8373251423759 132.209517756016 L 648 128 L 637.8373251423758 123.79048224398402" stroke-miterlimit="10"/></g><g transform="translate(1,2) scale(1,1)"><g><path fill="none" stroke="none"/><text fill="#000000" stroke="none" font-family="Arial" font-size="13px" font-style="normal" font-weight="normal" text-decoration="none" x="428.5" y="153.5">«include»</text></g></g><g transform="translate(1,2) scale(1,1)"><path fill="none" stroke="#000000" d="M 456 256 L 486 256 L 486 193 L 656 193" stroke-miterlimit="10" stroke-dasharray="3"/></g><g transform="translate(1,2) scale(1,1)"><path fill="none" stroke="#000000" d="M 645.8373251423759 197.209517756016 L 656 193 L 645.8373251423758 188.790482243984" stroke-miterlimit="10"/></g><g transform="translate(1,2) scale(1,1)"><g><path fill="none" stroke="none"/><text fill="#000000" stroke="none" font-family="Arial" font-size="13px" font-style="normal" font-weight="normal" text-decoration="none" x="428.5" y="229.5">«include»</text></g></g><g transform="translate(1,2) scale(1,1)"><path fill="none" stroke="#000000" d="M 440 152 L 440 73 L 576 73" stroke-miterlimit="10" stroke-dasharray="3"/></g><g transform="translate(1,2) scale(1,1)"><path fill="none" stroke="#000000" d="M 565.8373251423759 77.20951775601598 L 576 73 L 565.8373251423758 68.79048224398402" stroke-miterlimit="10"/></g><g transform="translate(1,2) scale(1,1)"><g><path fill="none" stroke="none"/><text fill="#000000" stroke="none" font-family="Arial" font-size="13px" font-style="normal" font-weight="normal" text-decoration="none" x="412.5" y="49.5">«include»</text></g></g></g></svg>